<?xml version="1.0" encoding="UTF-8" standalone="no"?>
<!-- Created with Inkscape (http://www.inkscape.org/) -->

<svg
   xmlns:dc="http://purl.org/dc/elements/1.1/"
   xmlns:cc="http://creativecommons.org/ns#"
   xmlns:rdf="http://www.w3.org/1999/02/22-rdf-syntax-ns#"
   xmlns:svg="http://www.w3.org/2000/svg"
   xmlns="http://www.w3.org/2000/svg"
   xmlns:sodipodi="http://sodipodi.sourceforge.net/DTD/sodipodi-0.dtd"
   xmlns:inkscape="http://www.inkscape.org/namespaces/inkscape"
   width="113.35831mm"
   height="30.265078mm"
   viewBox="0 0 401.66334 107.23847"
   id="svg2"
   version="1.1"
   inkscape:version="0.91 r13725"
   sodipodi:docname="bci_setup.svg">
  <defs
     id="defs4">
    <marker
       inkscape:isstock="true"
       style="overflow:visible"
       id="marker5678"
       refX="0"
       refY="0"
       orient="auto"
       inkscape:stockid="DotS">
      <path
         transform="matrix(0.2,0,0,0.2,1.48,0.2)"
         style="fill:#000000;fill-opacity:1;fill-rule:evenodd;stroke:#000000;stroke-width:1pt;stroke-opacity:1"
         d="m -2.5,-1 c 0,2.76 -2.24,5 -5,5 -2.76,0 -5,-2.24 -5,-5 0,-2.76 2.24,-5 5,-5 2.76,0 5,2.24 5,5 z"
         id="path5680"
         inkscape:connector-curvature="0" />
    </marker>
    <marker
       inkscape:stockid="DiamondS"
       orient="auto"
       refY="0"
       refX="0"
       id="DiamondS"
       style="overflow:visible"
       inkscape:isstock="true">
      <path
         id="path4519"
         d="M 0,-7.0710768 -7.0710894,0 0,7.0710589 7.0710462,0 0,-7.0710768 Z"
         style="fill:#000000;fill-opacity:1;fill-rule:evenodd;stroke:#000000;stroke-width:1pt;stroke-opacity:1"
         transform="scale(0.2,0.2)"
         inkscape:connector-curvature="0" />
    </marker>
    <marker
       inkscape:stockid="DotS"
       orient="auto"
       refY="0"
       refX="0"
       id="marker5248"
       style="overflow:visible"
       inkscape:isstock="true"
       inkscape:collect="always">
      <path
         id="path5250"
         d="m -2.5,-1 c 0,2.76 -2.24,5 -5,5 -2.76,0 -5,-2.24 -5,-5 0,-2.76 2.24,-5 5,-5 2.76,0 5,2.24 5,5 z"
         style="fill:#000000;fill-opacity:1;fill-rule:evenodd;stroke:#000000;stroke-width:1pt;stroke-opacity:1"
         transform="matrix(0.2,0,0,0.2,1.48,0.2)"
         inkscape:connector-curvature="0" />
    </marker>
    <marker
       inkscape:stockid="DotS"
       orient="auto"
       refY="0"
       refX="0"
       id="DotS"
       style="overflow:visible"
       inkscape:isstock="true">
      <path
         id="path4501"
         d="m -2.5,-1 c 0,2.76 -2.24,5 -5,5 -2.76,0 -5,-2.24 -5,-5 0,-2.76 2.24,-5 5,-5 2.76,0 5,2.24 5,5 z"
         style="fill:#000000;fill-opacity:1;fill-rule:evenodd;stroke:#000000;stroke-width:1pt;stroke-opacity:1"
         transform="matrix(0.2,0,0,0.2,1.48,0.2)"
         inkscape:connector-curvature="0" />
    </marker>
    <marker
       inkscape:stockid="SquareM"
       orient="auto"
       refY="0"
       refX="0"
       id="SquareM"
       style="overflow:visible"
       inkscape:isstock="true">
      <path
         id="path5001"
         d="M -5,-5 -5,5 5,5 5,-5 -5,-5 Z"
         style="fill:#000000;fill-opacity:1;fill-rule:evenodd;stroke:#000000;stroke-width:1pt;stroke-opacity:1"
         transform="scale(0.4,0.4)"
         inkscape:connector-curvature="0" />
    </marker>
    <marker
       inkscape:stockid="SquareS"
       orient="auto"
       refY="0"
       refX="0"
       id="SquareS"
       style="overflow:visible"
       inkscape:isstock="true">
      <path
         id="path5004"
         d="M -5,-5 -5,5 5,5 5,-5 -5,-5 Z"
         style="fill:#000000;fill-opacity:1;fill-rule:evenodd;stroke:#000000;stroke-width:1pt;stroke-opacity:1"
         transform="scale(0.2,0.2)"
         inkscape:connector-curvature="0" />
    </marker>
    <marker
       inkscape:stockid="DotS"
       orient="auto"
       refY="0"
       refX="0"
       id="marker4752"
       style="overflow:visible"
       inkscape:isstock="true">
      <path
         id="path4754"
         d="m -2.5,-1 c 0,2.76 -2.24,5 -5,5 -2.76,0 -5,-2.24 -5,-5 0,-2.76 2.24,-5 5,-5 2.76,0 5,2.24 5,5 z"
         style="fill:#000000;fill-opacity:1;fill-rule:evenodd;stroke:#000000;stroke-width:1pt;stroke-opacity:1"
         transform="matrix(0.2,0,0,0.2,1.48,0.2)"
         inkscape:connector-curvature="0" />
    </marker>
    <marker
       inkscape:isstock="true"
       style="overflow:visible"
       id="marker6589"
       refX="0"
       refY="0"
       orient="auto"
       inkscape:stockid="Arrow1Mend">
      <path
         inkscape:connector-curvature="0"
         transform="matrix(-0.4,0,0,-0.4,-4,0)"
         style="fill:#000000;fill-opacity:1;fill-rule:evenodd;stroke:#000000;stroke-width:1pt;stroke-opacity:1"
         d="M 0,0 5,-5 -12.5,0 5,5 0,0 Z"
         id="path6591" />
    </marker>
    <marker
       inkscape:isstock="true"
       style="overflow:visible"
       id="marker6475"
       refX="0"
       refY="0"
       orient="auto"
       inkscape:stockid="Arrow1Mend">
      <path
         inkscape:connector-curvature="0"
         transform="matrix(-0.4,0,0,-0.4,-4,0)"
         style="fill:#000000;fill-opacity:1;fill-rule:evenodd;stroke:#000000;stroke-width:1pt;stroke-opacity:1"
         d="M 0,0 5,-5 -12.5,0 5,5 0,0 Z"
         id="path6477" />
    </marker>
    <marker
       inkscape:stockid="DotS"
       orient="auto"
       refY="0"
       refX="0"
       id="marker6005"
       style="overflow:visible"
       inkscape:isstock="true">
      <path
         id="path6007"
         d="m -2.5,-1 c 0,2.76 -2.24,5 -5,5 -2.76,0 -5,-2.24 -5,-5 0,-2.76 2.24,-5 5,-5 2.76,0 5,2.24 5,5 z"
         style="fill:#000000;fill-opacity:1;fill-rule:evenodd;stroke:#000000;stroke-width:1pt;stroke-opacity:1"
         transform="matrix(0.2,0,0,0.2,1.48,0.2)"
         inkscape:connector-curvature="0" />
    </marker>
    <marker
       inkscape:isstock="true"
       style="overflow:visible"
       id="marker5815"
       refX="0"
       refY="0"
       orient="auto"
       inkscape:stockid="DotS">
      <path
         inkscape:connector-curvature="0"
         transform="matrix(0.2,0,0,0.2,1.48,0.2)"
         style="fill:#000000;fill-opacity:1;fill-rule:evenodd;stroke:#000000;stroke-width:1pt;stroke-opacity:1"
         d="m -2.5,-1 c 0,2.76 -2.24,5 -5,5 -2.76,0 -5,-2.24 -5,-5 0,-2.76 2.24,-5 5,-5 2.76,0 5,2.24 5,5 z"
         id="path5817" />
    </marker>
    <marker
       inkscape:stockid="DotS"
       orient="auto"
       refY="0"
       refX="0"
       id="marker5026"
       style="overflow:visible"
       inkscape:isstock="true">
      <path
         id="path5028"
         d="m -2.5,-1 c 0,2.76 -2.24,5 -5,5 -2.76,0 -5,-2.24 -5,-5 0,-2.76 2.24,-5 5,-5 2.76,0 5,2.24 5,5 z"
         style="fill:#000000;fill-opacity:1;fill-rule:evenodd;stroke:#000000;stroke-width:1pt;stroke-opacity:1"
         transform="matrix(0.2,0,0,0.2,1.48,0.2)"
         inkscape:connector-curvature="0" />
    </marker>
    <marker
       inkscape:isstock="true"
       style="overflow:visible"
       id="marker4636"
       refX="0"
       refY="0"
       orient="auto"
       inkscape:stockid="DotS">
      <path
         inkscape:connector-curvature="0"
         transform="matrix(0.2,0,0,0.2,1.48,0.2)"
         style="fill:#000000;fill-opacity:1;fill-rule:evenodd;stroke:#000000;stroke-width:1pt;stroke-opacity:1"
         d="m -2.5,-1 c 0,2.76 -2.24,5 -5,5 -2.76,0 -5,-2.24 -5,-5 0,-2.76 2.24,-5 5,-5 2.76,0 5,2.24 5,5 z"
         id="path4638" />
    </marker>
    <marker
       inkscape:isstock="true"
       style="overflow:visible"
       id="marker6120"
       refX="0"
       refY="0"
       orient="auto"
       inkscape:stockid="DotS">
      <path
         inkscape:connector-curvature="0"
         transform="matrix(0.2,0,0,0.2,1.48,0.2)"
         style="fill:#000000;fill-opacity:1;fill-rule:evenodd;stroke:#000000;stroke-width:1pt;stroke-opacity:1"
         d="m -2.5,-1 c 0,2.76 -2.24,5 -5,5 -2.76,0 -5,-2.24 -5,-5 0,-2.76 2.24,-5 5,-5 2.76,0 5,2.24 5,5 z"
         id="path6122" />
    </marker>
    <marker
       inkscape:isstock="true"
       style="overflow:visible"
       id="marker5366"
       refX="0"
       refY="0"
       orient="auto"
       inkscape:stockid="DotS">
      <path
         inkscape:connector-curvature="0"
         transform="matrix(0.2,0,0,0.2,1.48,0.2)"
         style="fill:#000000;fill-opacity:1;fill-rule:evenodd;stroke:#000000;stroke-width:1pt;stroke-opacity:1"
         d="m -2.5,-1 c 0,2.76 -2.24,5 -5,5 -2.76,0 -5,-2.24 -5,-5 0,-2.76 2.24,-5 5,-5 2.76,0 5,2.24 5,5 z"
         id="path5368" />
    </marker>
    <marker
       inkscape:stockid="TriangleInM"
       orient="auto"
       refY="0"
       refX="0"
       id="TriangleInM"
       style="overflow:visible"
       inkscape:isstock="true">
      <path
         id="path4435"
         d="m 5.77,0 -8.65,5 0,-10 8.65,5 z"
         style="fill:#000000;fill-opacity:1;fill-rule:evenodd;stroke:#000000;stroke-width:1pt;stroke-opacity:1"
         transform="scale(-0.4,-0.4)"
         inkscape:connector-curvature="0" />
    </marker>
    <marker
       inkscape:isstock="true"
       style="overflow:visible"
       id="marker4899"
       refX="0"
       refY="0"
       orient="auto"
       inkscape:stockid="Arrow2Sstart">
      <path
         transform="matrix(0.3,0,0,0.3,-0.69,0)"
         d="M 8.7185878,4.0337352 -2.2072895,0.01601326 8.7185884,-4.0017078 c -1.7454984,2.3720609 -1.7354408,5.6174519 -6e-7,8.035443 z"
         style="fill:#000000;fill-opacity:1;fill-rule:evenodd;stroke:#000000;stroke-width:0.625;stroke-linejoin:round;stroke-opacity:1"
         id="path4901"
         inkscape:connector-curvature="0" />
    </marker>
    <marker
       inkscape:stockid="TriangleOutM"
       orient="auto"
       refY="0"
       refX="0"
       id="TriangleOutM"
       style="overflow:visible"
       inkscape:isstock="true">
      <path
         id="path4444"
         d="m 5.77,0 -8.65,5 0,-10 8.65,5 z"
         style="fill:#000000;fill-opacity:1;fill-rule:evenodd;stroke:#000000;stroke-width:1pt;stroke-opacity:1"
         transform="scale(0.4,0.4)"
         inkscape:connector-curvature="0" />
    </marker>
    <marker
       inkscape:stockid="TriangleOutS"
       orient="auto"
       refY="0"
       refX="0"
       id="TriangleOutS"
       style="overflow:visible"
       inkscape:isstock="true">
      <path
         id="path4447"
         d="m 5.77,0 -8.65,5 0,-10 8.65,5 z"
         style="fill:#000000;fill-opacity:1;fill-rule:evenodd;stroke:#000000;stroke-width:1pt;stroke-opacity:1"
         transform="scale(0.2,0.2)"
         inkscape:connector-curvature="0" />
    </marker>
    <marker
       inkscape:stockid="Arrow2Mend"
       orient="auto"
       refY="0"
       refX="0"
       id="Arrow2Mend"
       style="overflow:visible"
       inkscape:isstock="true">
      <path
         id="path4326"
         style="fill:#000000;fill-opacity:1;fill-rule:evenodd;stroke:#000000;stroke-width:0.625;stroke-linejoin:round;stroke-opacity:1"
         d="M 8.7185878,4.0337352 -2.2072895,0.01601326 8.7185884,-4.0017078 c -1.7454984,2.3720609 -1.7354408,5.6174519 -6e-7,8.035443 z"
         transform="scale(-0.6,-0.6)"
         inkscape:connector-curvature="0" />
    </marker>
    <marker
       inkscape:isstock="true"
       style="overflow:visible"
       id="marker4688"
       refX="0"
       refY="0"
       orient="auto"
       inkscape:stockid="DotM">
      <path
         transform="matrix(0.4,0,0,0.4,2.96,0.4)"
         style="fill:#000000;fill-opacity:1;fill-rule:evenodd;stroke:#000000;stroke-width:1pt;stroke-opacity:1"
         d="m -2.5,-1 c 0,2.76 -2.24,5 -5,5 -2.76,0 -5,-2.24 -5,-5 0,-2.76 2.24,-5 5,-5 2.76,0 5,2.24 5,5 z"
         id="path4690"
         inkscape:connector-curvature="0" />
    </marker>
    <marker
       inkscape:stockid="DotL"
       orient="auto"
       refY="0"
       refX="0"
       id="DotL"
       style="overflow:visible"
       inkscape:isstock="true">
      <path
         id="path4287"
         d="m -2.5,-1 c 0,2.76 -2.24,5 -5,5 -2.76,0 -5,-2.24 -5,-5 0,-2.76 2.24,-5 5,-5 2.76,0 5,2.24 5,5 z"
         style="fill:#000000;fill-opacity:1;fill-rule:evenodd;stroke:#000000;stroke-width:1pt;stroke-opacity:1"
         transform="matrix(0.8,0,0,0.8,5.92,0.8)"
         inkscape:connector-curvature="0" />
    </marker>
    <marker
       inkscape:stockid="Arrow1Mend"
       orient="auto"
       refY="0"
       refX="0"
       id="marker8028"
       style="overflow:visible"
       inkscape:isstock="true">
      <path
         inkscape:connector-curvature="0"
         id="path8030"
         d="M 0,0 5,-5 -12.5,0 5,5 0,0 Z"
         style="fill:#000000;fill-opacity:1;fill-rule:evenodd;stroke:#000000;stroke-width:1pt;stroke-opacity:1"
         transform="matrix(-0.4,0,0,-0.4,-4,0)" />
    </marker>
    <marker
       inkscape:stockid="Arrow1Mend"
       orient="auto"
       refY="0"
       refX="0"
       id="marker7212"
       style="overflow:visible"
       inkscape:isstock="true">
      <path
         inkscape:connector-curvature="0"
         id="path7214"
         d="M 0,0 5,-5 -12.5,0 5,5 0,0 Z"
         style="fill:#000000;fill-opacity:1;fill-rule:evenodd;stroke:#000000;stroke-width:1pt;stroke-opacity:1"
         transform="matrix(-0.4,0,0,-0.4,-4,0)" />
    </marker>
    <marker
       inkscape:stockid="Arrow2Send"
       orient="auto"
       refY="0"
       refX="0"
       id="Arrow2Send"
       style="overflow:visible"
       inkscape:isstock="true">
      <path
         inkscape:connector-curvature="0"
         id="path5866"
         style="fill:#000000;fill-opacity:1;fill-rule:evenodd;stroke:#000000;stroke-width:0.625;stroke-linejoin:round;stroke-opacity:1"
         d="M 8.7185878,4.0337352 -2.2072895,0.01601326 8.7185884,-4.0017078 c -1.7454984,2.3720609 -1.7354408,5.6174519 -6e-7,8.035443 z"
         transform="matrix(-0.3,0,0,-0.3,0.69,0)" />
    </marker>
    <marker
       inkscape:isstock="true"
       style="overflow:visible"
       id="marker6475-0"
       refX="0"
       refY="0"
       orient="auto"
       inkscape:stockid="Arrow1Mend">
      <path
         inkscape:connector-curvature="0"
         transform="matrix(-0.4,0,0,-0.4,-4,0)"
         style="fill:#000000;fill-opacity:1;fill-rule:evenodd;stroke:#000000;stroke-width:1pt;stroke-opacity:1"
         d="M 0,0 5,-5 -12.5,0 5,5 0,0 Z"
         id="path6477-0" />
    </marker>
    <marker
       inkscape:isstock="true"
       style="overflow:visible"
       id="marker5815-2"
       refX="0"
       refY="0"
       orient="auto"
       inkscape:stockid="DotS">
      <path
         inkscape:connector-curvature="0"
         transform="matrix(0.2,0,0,0.2,1.48,0.2)"
         style="fill:#000000;fill-opacity:1;fill-rule:evenodd;stroke:#000000;stroke-width:1pt;stroke-opacity:1"
         d="m -2.5,-1 c 0,2.76 -2.24,5 -5,5 -2.76,0 -5,-2.24 -5,-5 0,-2.76 2.24,-5 5,-5 2.76,0 5,2.24 5,5 z"
         id="path5817-0" />
    </marker>
    <marker
       inkscape:isstock="true"
       style="overflow:visible"
       id="marker4636-6"
       refX="0"
       refY="0"
       orient="auto"
       inkscape:stockid="DotS">
      <path
         inkscape:connector-curvature="0"
         transform="matrix(0.2,0,0,0.2,1.48,0.2)"
         style="fill:#000000;fill-opacity:1;fill-rule:evenodd;stroke:#000000;stroke-width:1pt;stroke-opacity:1"
         d="m -2.5,-1 c 0,2.76 -2.24,5 -5,5 -2.76,0 -5,-2.24 -5,-5 0,-2.76 2.24,-5 5,-5 2.76,0 5,2.24 5,5 z"
         id="path4638-9" />
    </marker>
  </defs>
  <sodipodi:namedview
     id="base"
     pagecolor="#ffffff"
     bordercolor="#666666"
     borderopacity="1.0"
     inkscape:pageopacity="0.0"
     inkscape:pageshadow="2"
     inkscape:zoom="2"
     inkscape:cx="228.82094"
     inkscape:cy="66.412757"
     inkscape:document-units="px"
     inkscape:current-layer="layer1"
     showgrid="true"
     fit-margin-top="1"
     fit-margin-right="1"
     fit-margin-bottom="1"
     fit-margin-left="1"
     inkscape:window-width="1600"
     inkscape:window-height="838"
     inkscape:window-x="-8"
     inkscape:window-y="-8"
     inkscape:window-maximized="1"
     inkscape:snap-bbox="true"
     inkscape:object-nodes="true"
     showguides="true"
     inkscape:snap-bbox-midpoints="true"
     inkscape:snap-global="true">
    <inkscape:grid
       type="xygrid"
       id="grid4164"
       originx="62.119976"
       originy="104.54331" />
  </sodipodi:namedview>
  <metadata
     id="metadata7">
    <rdf:RDF>
      <cc:Work
         rdf:about="">
        <dc:format>image/svg+xml</dc:format>
        <dc:type
           rdf:resource="http://purl.org/dc/dcmitype/StillImage" />
        <dc:title></dc:title>
      </cc:Work>
    </rdf:RDF>
  </metadata>
  <g
     inkscape:label="Layer 1"
     inkscape:groupmode="layer"
     id="layer1"
     transform="translate(-404.11837,-224.8122)">
    <path
       style="fill:#9f9b9b;fill-opacity:1;fill-rule:evenodd;stroke:#000000;stroke-width:1px;stroke-linecap:butt;stroke-linejoin:miter;stroke-opacity:1"
       d="m 698.2384,267.50734 c -1.38071,0 -2.5,-6.71573 -2.5,-15 0,-8.28427 1.11929,-15 2.49999,-15 l 2.99998,0 c -1.38071,0 -2.5,6.71573 -2.5,15 0,8.28427 1.11929,15 2.50001,15 z"
       id="path6142"
       inkscape:connector-curvature="0"
       sodipodi:nodetypes="csccscc" />
    <path
       sodipodi:nodetypes="csccscc"
       inkscape:connector-curvature="0"
       id="path6113"
       d="m 588.23843,267.50734 c -1.38071,0 -2.5,-6.71573 -2.5,-15 0,-8.28427 1.11929,-15 2.49999,-15 l 2.99998,0 c -1.38071,0 -2.5,6.71573 -2.5,15 0,8.28427 1.11929,15 2.50001,15 z"
       style="fill:#9f9b9b;fill-opacity:1;fill-rule:evenodd;stroke:#000000;stroke-width:1px;stroke-linecap:butt;stroke-linejoin:miter;stroke-opacity:1" />
    <g
       transform="matrix(0.61674027,0,0,0.61674027,192.8629,150.15524)"
       id="g5302">
      <path
         inkscape:connector-curvature="0"
         style="fill:none;stroke:#000000;stroke-width:2;stroke-linecap:round;stroke-linejoin:miter;stroke-miterlimit:4;stroke-dasharray:none;stroke-opacity:1"
         d="m 395.09608,206.49231 -17.17486,0"
         id="path5304" />
      <path
         inkscape:connector-curvature="0"
         style="fill:none;stroke:#000000;stroke-width:2;stroke-linecap:round;stroke-linejoin:miter;stroke-miterlimit:4;stroke-dasharray:none;stroke-opacity:1"
         d="m 391.80486,209.4407 -10.59242,0"
         id="path5306" />
      <path
         inkscape:connector-curvature="0"
         style="fill:none;stroke:#000000;stroke-width:2;stroke-linecap:round;stroke-linejoin:miter;stroke-miterlimit:4;stroke-dasharray:none;stroke-opacity:1"
         d="m 388.74062,212.3891 -4.46394,0"
         id="path5308" />
    </g>
    <rect
       style="opacity:1;fill:none;fill-opacity:1;stroke:#000000;stroke-width:2;stroke-linecap:round;stroke-linejoin:round;stroke-miterlimit:4;stroke-dasharray:none;stroke-dashoffset:0;stroke-opacity:1"
       id="rect4397"
       width="40"
       height="25"
       x="456.23834"
       y="272.50735" />
    <text
       xml:space="preserve"
       style="font-style:normal;font-variant:normal;font-weight:300;font-stretch:normal;font-size:10.00000095px;line-height:125%;font-family:Roboto;-inkscape-font-specification:'Roboto Light';text-align:center;letter-spacing:0px;word-spacing:0px;text-anchor:middle;fill:#000000;fill-opacity:1;stroke:none;stroke-width:1px;stroke-linecap:butt;stroke-linejoin:miter;stroke-opacity:1"
       x="475.85748"
       y="287.99515"
       id="text4399"
       sodipodi:linespacing="125%"
       inkscape:export-filename="C:\Users\B48923\Documents\MesRapports-Papiers-Presentations\EOS ESD 2015\FirstDraft\fullsetup.png"
       inkscape:export-xdpi="180"
       inkscape:export-ydpi="180"><tspan
         id="tspan4404"
         sodipodi:role="line"
         x="475.85748"
         y="287.99515">battery</tspan></text>
    <path
       inkscape:export-ydpi="180"
       inkscape:export-xdpi="180"
       inkscape:export-filename="C:\Users\B48923\Documents\MesRapports-Papiers-Presentations\EOS ESD 2015\FirstDraft\fullsetup.png"
       id="path4408"
       d="m 431.23835,242.50736 0,3.33334 2.1295,1.1111 -4.259,2.22223 4.259,2.22222 -4.259,2.22222 4.259,2.22223 -4.259,2.22221 2.1295,1.11111 0,8.33334"
       style="font-size:8px;fill:none;stroke:#000000;stroke-width:1.00000012;stroke-linecap:round;stroke-linejoin:round;stroke-miterlimit:4;stroke-dasharray:none;stroke-opacity:1;marker-end:url(#marker5248)"
       inkscape:connector-curvature="0"
       sodipodi:nodetypes="cccccccccc" />
    <path
       style="fill:none;fill-rule:evenodd;stroke:#000000;stroke-width:1.00000012;stroke-linecap:butt;stroke-linejoin:miter;stroke-miterlimit:4;stroke-dasharray:none;stroke-opacity:1"
       d="m 431.23835,242.50734 0,-5 60,0 0,35.00002"
       id="path4410"
       inkscape:connector-curvature="0"
       sodipodi:nodetypes="cccc" />
    <path
       style="fill:none;fill-rule:evenodd;stroke:#000000;stroke-width:1px;stroke-linecap:butt;stroke-linejoin:miter;stroke-opacity:1"
       d="m 461.23835,272.50736 0,-5 -30,0 0,9.99998"
       id="path4412"
       inkscape:connector-curvature="0"
       sodipodi:nodetypes="cccc" />
    <text
       inkscape:export-ydpi="180"
       inkscape:export-xdpi="180"
       inkscape:export-filename="C:\Users\B48923\Documents\MesRapports-Papiers-Presentations\EOS ESD 2015\FirstDraft\fullsetup.png"
       sodipodi:linespacing="125%"
       id="text4414"
       y="256.20853"
       x="416.21637"
       style="font-style:normal;font-variant:normal;font-weight:300;font-stretch:normal;font-size:10.00000095px;line-height:125%;font-family:Roboto;-inkscape-font-specification:'Roboto Light';text-align:center;letter-spacing:0px;word-spacing:0px;text-anchor:middle;fill:#000000;fill-opacity:1;stroke:none;stroke-width:1px;stroke-linecap:butt;stroke-linejoin:miter;stroke-opacity:1"
       xml:space="preserve"><tspan
         y="256.20853"
         x="416.21637"
         sodipodi:role="line"
         id="tspan4416">load</tspan></text>
    <rect
       y="237.50735"
       x="506.23837"
       height="25"
       width="40"
       id="rect5462"
       style="opacity:1;fill:none;fill-opacity:1;stroke:#000000;stroke-width:2;stroke-linecap:round;stroke-linejoin:round;stroke-miterlimit:4;stroke-dasharray:none;stroke-dashoffset:0;stroke-opacity:1" />
    <text
       inkscape:export-ydpi="180"
       inkscape:export-xdpi="180"
       inkscape:export-filename="C:\Users\B48923\Documents\MesRapports-Papiers-Presentations\EOS ESD 2015\FirstDraft\fullsetup.png"
       sodipodi:linespacing="125%"
       id="text5464"
       y="252.99515"
       x="525.85748"
       style="font-style:normal;font-variant:normal;font-weight:300;font-stretch:normal;font-size:10.00000095px;line-height:125%;font-family:Roboto;-inkscape-font-specification:'Roboto Light';text-align:center;letter-spacing:0px;word-spacing:0px;text-anchor:middle;fill:#000000;fill-opacity:1;stroke:none;stroke-width:1px;stroke-linecap:butt;stroke-linejoin:miter;stroke-opacity:1"
       xml:space="preserve"><tspan
         y="252.99515"
         x="525.85748"
         sodipodi:role="line"
         id="tspan5466">LISN</tspan></text>
    <path
       style="fill:none;fill-rule:evenodd;stroke:#000000;stroke-width:1px;stroke-linecap:butt;stroke-linejoin:miter;stroke-opacity:1;marker-start:url(#DiamondS)"
       d="m 491.23835,267.50734 15,-15"
       id="path5468"
       inkscape:connector-curvature="0"
       sodipodi:nodetypes="cc" />
    <path
       sodipodi:nodetypes="cccccccccccc"
       inkscape:connector-curvature="0"
       style="font-size:8px;fill:none;stroke:#000000;stroke-width:1.00000012;stroke-linecap:round;stroke-linejoin:round;stroke-miterlimit:4;stroke-dasharray:none;stroke-opacity:1"
       d="m 546.23836,242.50735 3.33334,0 1.1111,-2.1295 2.22223,4.259 2.22222,-4.259 2.22222,4.259 2.22223,-4.259 2.22221,4.259 1.11111,-2.1295 8.33335,0 0,5 -25.00001,0"
       id="path5676"
       inkscape:export-filename="C:\Users\B48923\Documents\MesRapports-Papiers-Presentations\EOS ESD 2015\FirstDraft\fullsetup.png"
       inkscape:export-xdpi="180"
       inkscape:export-ydpi="180" />
    <text
       xml:space="preserve"
       style="font-style:normal;font-variant:normal;font-weight:normal;font-stretch:normal;font-size:7.50000095px;line-height:125%;font-family:Roboto;-inkscape-font-specification:Roboto;text-align:center;letter-spacing:0px;word-spacing:0px;text-anchor:middle;fill:#000000;fill-opacity:1;stroke:none;stroke-width:1px;stroke-linecap:butt;stroke-linejoin:miter;stroke-opacity:1"
       x="561.06805"
       y="237.28323"
       id="text6090"
       sodipodi:linespacing="125%"
       inkscape:export-filename="C:\Users\B48923\Documents\MesRapports-Papiers-Presentations\EOS ESD 2015\FirstDraft\fullsetup.png"
       inkscape:export-xdpi="180"
       inkscape:export-ydpi="180"><tspan
         id="tspan6092"
         sodipodi:role="line"
         x="561.06805"
         y="237.28323">50Ω RF</tspan></text>
    <path
       style="fill:none;fill-rule:evenodd;stroke:#000000;stroke-width:3.00000048;stroke-linecap:butt;stroke-linejoin:miter;stroke-miterlimit:4;stroke-dasharray:none;stroke-opacity:1"
       d="m 546.23835,252.50734 165.00003,0"
       id="path6094"
       inkscape:connector-curvature="0"
       sodipodi:nodetypes="cc" />
    <path
       style="fill:#4e4e4e;fill-opacity:1;fill-rule:evenodd;stroke:#000000;stroke-width:1px;stroke-linecap:butt;stroke-linejoin:miter;stroke-opacity:1"
       d="m 591.23837,267.50734 c 1.38071,0 2.5,-6.71573 2.5,-15 0,-8.28427 -1.11929,-15 -2.49999,-15 l -2.99998,0 c 1.38071,0 2.5,6.71573 2.5,15 0,8.28427 -1.11929,15 -2.50001,15 z"
       id="path6103"
       inkscape:connector-curvature="0"
       sodipodi:nodetypes="csccscc" />
    <rect
       y="302.50735"
       x="560.23834"
       height="25"
       width="60.000038"
       id="rect6119"
       style="opacity:1;fill:none;fill-opacity:1;stroke:#000000;stroke-width:2;stroke-linecap:round;stroke-linejoin:round;stroke-miterlimit:4;stroke-dasharray:none;stroke-dashoffset:0;stroke-opacity:1" />
    <text
       inkscape:export-ydpi="180"
       inkscape:export-xdpi="180"
       inkscape:export-filename="C:\Users\B48923\Documents\MesRapports-Papiers-Presentations\EOS ESD 2015\FirstDraft\fullsetup.png"
       sodipodi:linespacing="125%"
       id="text6121"
       y="317.99515"
       x="589.85748"
       style="font-style:normal;font-variant:normal;font-weight:300;font-stretch:normal;font-size:10.00000095px;line-height:125%;font-family:Roboto;-inkscape-font-specification:'Roboto Light';text-align:center;letter-spacing:0px;word-spacing:0px;text-anchor:middle;fill:#000000;fill-opacity:1;stroke:none;stroke-width:1px;stroke-linecap:butt;stroke-linejoin:miter;stroke-opacity:1"
       xml:space="preserve"><tspan
         y="317.99515"
         x="589.85748"
         sodipodi:role="line"
         id="tspan6123">synthesizer</tspan></text>
    <rect
       style="opacity:1;fill:none;fill-opacity:1;stroke:#000000;stroke-width:2;stroke-linecap:round;stroke-linejoin:round;stroke-miterlimit:4;stroke-dasharray:none;stroke-dashoffset:0;stroke-opacity:1"
       id="rect6125"
       width="70.000038"
       height="25"
       x="621.23834"
       y="272.50735" />
    <text
       xml:space="preserve"
       style="font-style:normal;font-variant:normal;font-weight:300;font-stretch:normal;font-size:10.00000095px;line-height:125%;font-family:Roboto;-inkscape-font-specification:'Roboto Light';text-align:center;letter-spacing:0px;word-spacing:0px;text-anchor:middle;fill:#000000;fill-opacity:1;stroke:none;stroke-width:1px;stroke-linecap:butt;stroke-linejoin:miter;stroke-opacity:1"
       x="655.85748"
       y="287.99515"
       id="text6127"
       sodipodi:linespacing="125%"
       inkscape:export-filename="C:\Users\B48923\Documents\MesRapports-Papiers-Presentations\EOS ESD 2015\FirstDraft\fullsetup.png"
       inkscape:export-xdpi="180"
       inkscape:export-ydpi="180"><tspan
         id="tspan6129"
         sodipodi:role="line"
         x="655.85748"
         y="287.99515">power-meter</tspan></text>
    <circle
       style="opacity:1;fill:none;fill-opacity:1;stroke:#000000;stroke-width:1.00000012;stroke-linecap:round;stroke-linejoin:round;stroke-miterlimit:4;stroke-dasharray:none;stroke-dashoffset:0;stroke-opacity:1"
       id="path6131"
       cx="590.23834"
       cy="284.50735"
       r="6.548645" />
    <path
       style="fill:none;fill-rule:evenodd;stroke:#000000;stroke-width:1px;stroke-linecap:butt;stroke-linejoin:miter;stroke-opacity:1"
       d="m 590.23835,267.50734 0,10"
       id="path6136"
       inkscape:connector-curvature="0" />
    <path
       style="fill:none;fill-rule:evenodd;stroke:#000000;stroke-width:1px;stroke-linecap:butt;stroke-linejoin:miter;stroke-opacity:1"
       d="m 597.23835,284.50734 23,0"
       id="path6138"
       inkscape:connector-curvature="0" />
    <path
       style="fill:none;fill-rule:evenodd;stroke:#000000;stroke-width:1px;stroke-linecap:butt;stroke-linejoin:miter;stroke-opacity:1"
       d="m 590.23835,291.50734 0,11"
       id="path6140"
       inkscape:connector-curvature="0" />
    <path
       sodipodi:nodetypes="csccscc"
       inkscape:connector-curvature="0"
       id="path6144"
       d="m 701.23834,267.50734 c 1.38071,0 2.5,-6.71573 2.5,-15 0,-8.28427 -1.11929,-15 -2.49999,-15 l -2.99998,0 c 1.38071,0 2.5,6.71573 2.5,15 0,8.28427 -1.11929,15 -2.50001,15 z"
       style="fill:#4e4e4e;fill-opacity:1;fill-rule:evenodd;stroke:#000000;stroke-width:1px;stroke-linecap:butt;stroke-linejoin:miter;stroke-opacity:1" />
    <text
       inkscape:export-ydpi="180"
       inkscape:export-xdpi="180"
       inkscape:export-filename="C:\Users\B48923\Documents\MesRapports-Papiers-Presentations\EOS ESD 2015\FirstDraft\fullsetup.png"
       sodipodi:linespacing="125%"
       id="text6146"
       y="233.76077"
       x="596.06781"
       style="font-style:normal;font-variant:normal;font-weight:normal;font-stretch:normal;font-size:7.50000095px;line-height:125%;font-family:Roboto;-inkscape-font-specification:Roboto;text-align:start;letter-spacing:0px;word-spacing:0px;text-anchor:start;fill:#000000;fill-opacity:1;stroke:none;stroke-width:1px;stroke-linecap:butt;stroke-linejoin:miter;stroke-opacity:1"
       xml:space="preserve"><tspan
         y="233.76077"
         x="596.06781"
         sodipodi:role="line"
         id="tspan6148">injection</tspan><tspan
         y="243.13577"
         x="596.06781"
         sodipodi:role="line"
         id="tspan6150">probe</tspan></text>
    <text
       xml:space="preserve"
       style="font-style:normal;font-variant:normal;font-weight:normal;font-stretch:normal;font-size:7.50000095px;line-height:125%;font-family:Roboto;-inkscape-font-specification:Roboto;text-align:end;letter-spacing:0px;word-spacing:0px;text-anchor:end;fill:#000000;fill-opacity:1;stroke:none;stroke-width:1px;stroke-linecap:butt;stroke-linejoin:miter;stroke-opacity:1"
       x="694.21997"
       y="233.76077"
       id="text6152"
       sodipodi:linespacing="125%"
       inkscape:export-filename="C:\Users\B48923\Documents\MesRapports-Papiers-Presentations\EOS ESD 2015\FirstDraft\fullsetup.png"
       inkscape:export-xdpi="180"
       inkscape:export-ydpi="180"><tspan
         id="tspan6154"
         sodipodi:role="line"
         x="694.21997"
         y="233.76077">measurement</tspan><tspan
         id="tspan6156"
         sodipodi:role="line"
         x="694.21997"
         y="243.13577">probe</tspan></text>
    <rect
       style="opacity:1;fill:none;fill-opacity:1;stroke:#000000;stroke-width:2;stroke-linecap:round;stroke-linejoin:round;stroke-miterlimit:4;stroke-dasharray:none;stroke-dashoffset:0;stroke-opacity:1"
       id="rect6158"
       width="89.999992"
       height="30"
       x="711.2384"
       y="237.50735" />
    <text
       inkscape:export-ydpi="180"
       inkscape:export-xdpi="180"
       inkscape:export-filename="C:\Users\B48923\Documents\MesRapports-Papiers-Presentations\EOS ESD 2015\FirstDraft\fullsetup.png"
       sodipodi:linespacing="125%"
       id="text6160"
       y="250.19046"
       x="755.87463"
       style="font-style:normal;font-variant:normal;font-weight:300;font-stretch:normal;font-size:10.00000095px;line-height:125%;font-family:Roboto;-inkscape-font-specification:'Roboto Light';text-align:center;letter-spacing:0px;word-spacing:0px;text-anchor:middle;fill:#000000;fill-opacity:1;stroke:none;stroke-width:1px;stroke-linecap:butt;stroke-linejoin:miter;stroke-opacity:1"
       xml:space="preserve"><tspan
         y="250.19046"
         x="757.09534"
         sodipodi:role="line"
         id="tspan6164">integrated circuit </tspan><tspan
         y="262.69046"
         x="755.87463"
         sodipodi:role="line"
         id="tspan6168">under test</tspan></text>
  </g>
</svg>
