<?xml version="1.0" encoding="UTF-8" standalone="no"?>
<!-- Created with Inkscape (http://www.inkscape.org/) -->

<svg
   xmlns:dc="http://purl.org/dc/elements/1.1/"
   xmlns:cc="http://creativecommons.org/ns#"
   xmlns:rdf="http://www.w3.org/1999/02/22-rdf-syntax-ns#"
   xmlns:svg="http://www.w3.org/2000/svg"
   xmlns="http://www.w3.org/2000/svg"
   xmlns:sodipodi="http://sodipodi.sourceforge.net/DTD/sodipodi-0.dtd"
   xmlns:inkscape="http://www.inkscape.org/namespaces/inkscape"
   width="85.728012mm"
   height="16.570528mm"
   viewBox="0 0 303.76071 58.714469"
   id="svg2"
   version="1.1"
   inkscape:version="0.91 r13725"
   sodipodi:docname="tlp_concept.svg">
  <defs
     id="defs4">
    <marker
       inkscape:stockid="SquareM"
       orient="auto"
       refY="0"
       refX="0"
       id="SquareM"
       style="overflow:visible"
       inkscape:isstock="true">
      <path
         id="path5001"
         d="M -5,-5 -5,5 5,5 5,-5 -5,-5 Z"
         style="fill:#000000;fill-opacity:1;fill-rule:evenodd;stroke:#000000;stroke-width:1pt;stroke-opacity:1"
         transform="scale(0.4,0.4)"
         inkscape:connector-curvature="0" />
    </marker>
    <marker
       inkscape:stockid="SquareS"
       orient="auto"
       refY="0"
       refX="0"
       id="SquareS"
       style="overflow:visible"
       inkscape:isstock="true">
      <path
         id="path5004"
         d="M -5,-5 -5,5 5,5 5,-5 -5,-5 Z"
         style="fill:#000000;fill-opacity:1;fill-rule:evenodd;stroke:#000000;stroke-width:1pt;stroke-opacity:1"
         transform="scale(0.2,0.2)"
         inkscape:connector-curvature="0" />
    </marker>
    <marker
       inkscape:stockid="DotS"
       orient="auto"
       refY="0"
       refX="0"
       id="marker4752"
       style="overflow:visible"
       inkscape:isstock="true">
      <path
         id="path4754"
         d="m -2.5,-1 c 0,2.76 -2.24,5 -5,5 -2.76,0 -5,-2.24 -5,-5 0,-2.76 2.24,-5 5,-5 2.76,0 5,2.24 5,5 z"
         style="fill:#000000;fill-opacity:1;fill-rule:evenodd;stroke:#000000;stroke-width:1pt;stroke-opacity:1"
         transform="matrix(0.2,0,0,0.2,1.48,0.2)"
         inkscape:connector-curvature="0" />
    </marker>
    <marker
       inkscape:isstock="true"
       style="overflow:visible"
       id="marker4520"
       refX="0"
       refY="0"
       orient="auto"
       inkscape:stockid="DotS"
       inkscape:collect="always">
      <path
         inkscape:connector-curvature="0"
         transform="matrix(0.2,0,0,0.2,1.48,0.2)"
         style="fill:#000000;fill-opacity:1;fill-rule:evenodd;stroke:#000000;stroke-width:1pt;stroke-opacity:1"
         d="m -2.5,-1 c 0,2.76 -2.24,5 -5,5 -2.76,0 -5,-2.24 -5,-5 0,-2.76 2.24,-5 5,-5 2.76,0 5,2.24 5,5 z"
         id="path4522" />
    </marker>
    <marker
       inkscape:isstock="true"
       style="overflow:visible"
       id="marker6589"
       refX="0"
       refY="0"
       orient="auto"
       inkscape:stockid="Arrow1Mend">
      <path
         inkscape:connector-curvature="0"
         transform="matrix(-0.4,0,0,-0.4,-4,0)"
         style="fill:#000000;fill-opacity:1;fill-rule:evenodd;stroke:#000000;stroke-width:1pt;stroke-opacity:1"
         d="M 0,0 5,-5 -12.5,0 5,5 0,0 Z"
         id="path6591" />
    </marker>
    <marker
       inkscape:isstock="true"
       style="overflow:visible"
       id="marker6475"
       refX="0"
       refY="0"
       orient="auto"
       inkscape:stockid="Arrow1Mend">
      <path
         inkscape:connector-curvature="0"
         transform="matrix(-0.4,0,0,-0.4,-4,0)"
         style="fill:#000000;fill-opacity:1;fill-rule:evenodd;stroke:#000000;stroke-width:1pt;stroke-opacity:1"
         d="M 0,0 5,-5 -12.5,0 5,5 0,0 Z"
         id="path6477" />
    </marker>
    <marker
       inkscape:stockid="DotS"
       orient="auto"
       refY="0"
       refX="0"
       id="marker6005"
       style="overflow:visible"
       inkscape:isstock="true">
      <path
         id="path6007"
         d="m -2.5,-1 c 0,2.76 -2.24,5 -5,5 -2.76,0 -5,-2.24 -5,-5 0,-2.76 2.24,-5 5,-5 2.76,0 5,2.24 5,5 z"
         style="fill:#000000;fill-opacity:1;fill-rule:evenodd;stroke:#000000;stroke-width:1pt;stroke-opacity:1"
         transform="matrix(0.2,0,0,0.2,1.48,0.2)"
         inkscape:connector-curvature="0" />
    </marker>
    <marker
       inkscape:isstock="true"
       style="overflow:visible"
       id="marker5815"
       refX="0"
       refY="0"
       orient="auto"
       inkscape:stockid="DotS">
      <path
         inkscape:connector-curvature="0"
         transform="matrix(0.2,0,0,0.2,1.48,0.2)"
         style="fill:#000000;fill-opacity:1;fill-rule:evenodd;stroke:#000000;stroke-width:1pt;stroke-opacity:1"
         d="m -2.5,-1 c 0,2.76 -2.24,5 -5,5 -2.76,0 -5,-2.24 -5,-5 0,-2.76 2.24,-5 5,-5 2.76,0 5,2.24 5,5 z"
         id="path5817" />
    </marker>
    <marker
       inkscape:stockid="DotS"
       orient="auto"
       refY="0"
       refX="0"
       id="marker5394"
       style="overflow:visible"
       inkscape:isstock="true"
       inkscape:collect="always">
      <path
         id="path5396"
         d="m -2.5,-1 c 0,2.76 -2.24,5 -5,5 -2.76,0 -5,-2.24 -5,-5 0,-2.76 2.24,-5 5,-5 2.76,0 5,2.24 5,5 z"
         style="fill:#000000;fill-opacity:1;fill-rule:evenodd;stroke:#000000;stroke-width:1pt;stroke-opacity:1"
         transform="matrix(0.2,0,0,0.2,1.48,0.2)"
         inkscape:connector-curvature="0" />
    </marker>
    <marker
       inkscape:stockid="DotS"
       orient="auto"
       refY="0"
       refX="0"
       id="marker5026"
       style="overflow:visible"
       inkscape:isstock="true">
      <path
         id="path5028"
         d="m -2.5,-1 c 0,2.76 -2.24,5 -5,5 -2.76,0 -5,-2.24 -5,-5 0,-2.76 2.24,-5 5,-5 2.76,0 5,2.24 5,5 z"
         style="fill:#000000;fill-opacity:1;fill-rule:evenodd;stroke:#000000;stroke-width:1pt;stroke-opacity:1"
         transform="matrix(0.2,0,0,0.2,1.48,0.2)"
         inkscape:connector-curvature="0" />
    </marker>
    <marker
       inkscape:isstock="true"
       style="overflow:visible"
       id="marker4798"
       refX="0"
       refY="0"
       orient="auto"
       inkscape:stockid="DotS"
       inkscape:collect="always">
      <path
         inkscape:connector-curvature="0"
         transform="matrix(0.2,0,0,0.2,1.48,0.2)"
         style="fill:#000000;fill-opacity:1;fill-rule:evenodd;stroke:#000000;stroke-width:1pt;stroke-opacity:1"
         d="m -2.5,-1 c 0,2.76 -2.24,5 -5,5 -2.76,0 -5,-2.24 -5,-5 0,-2.76 2.24,-5 5,-5 2.76,0 5,2.24 5,5 z"
         id="path4800" />
    </marker>
    <marker
       inkscape:isstock="true"
       style="overflow:visible"
       id="marker4636"
       refX="0"
       refY="0"
       orient="auto"
       inkscape:stockid="DotS">
      <path
         inkscape:connector-curvature="0"
         transform="matrix(0.2,0,0,0.2,1.48,0.2)"
         style="fill:#000000;fill-opacity:1;fill-rule:evenodd;stroke:#000000;stroke-width:1pt;stroke-opacity:1"
         d="m -2.5,-1 c 0,2.76 -2.24,5 -5,5 -2.76,0 -5,-2.24 -5,-5 0,-2.76 2.24,-5 5,-5 2.76,0 5,2.24 5,5 z"
         id="path4638" />
    </marker>
    <marker
       inkscape:isstock="true"
       style="overflow:visible"
       id="marker6120"
       refX="0"
       refY="0"
       orient="auto"
       inkscape:stockid="DotS">
      <path
         inkscape:connector-curvature="0"
         transform="matrix(0.2,0,0,0.2,1.48,0.2)"
         style="fill:#000000;fill-opacity:1;fill-rule:evenodd;stroke:#000000;stroke-width:1pt;stroke-opacity:1"
         d="m -2.5,-1 c 0,2.76 -2.24,5 -5,5 -2.76,0 -5,-2.24 -5,-5 0,-2.76 2.24,-5 5,-5 2.76,0 5,2.24 5,5 z"
         id="path6122" />
    </marker>
    <marker
       inkscape:isstock="true"
       style="overflow:visible"
       id="marker5366"
       refX="0"
       refY="0"
       orient="auto"
       inkscape:stockid="DotS">
      <path
         inkscape:connector-curvature="0"
         transform="matrix(0.2,0,0,0.2,1.48,0.2)"
         style="fill:#000000;fill-opacity:1;fill-rule:evenodd;stroke:#000000;stroke-width:1pt;stroke-opacity:1"
         d="m -2.5,-1 c 0,2.76 -2.24,5 -5,5 -2.76,0 -5,-2.24 -5,-5 0,-2.76 2.24,-5 5,-5 2.76,0 5,2.24 5,5 z"
         id="path5368" />
    </marker>
    <marker
       inkscape:stockid="TriangleInM"
       orient="auto"
       refY="0"
       refX="0"
       id="TriangleInM"
       style="overflow:visible"
       inkscape:isstock="true">
      <path
         id="path4435"
         d="m 5.77,0 -8.65,5 0,-10 8.65,5 z"
         style="fill:#000000;fill-opacity:1;fill-rule:evenodd;stroke:#000000;stroke-width:1pt;stroke-opacity:1"
         transform="scale(-0.4,-0.4)"
         inkscape:connector-curvature="0" />
    </marker>
    <marker
       inkscape:isstock="true"
       style="overflow:visible"
       id="marker4899"
       refX="0"
       refY="0"
       orient="auto"
       inkscape:stockid="Arrow2Sstart">
      <path
         transform="matrix(0.3,0,0,0.3,-0.69,0)"
         d="M 8.7185878,4.0337352 -2.2072895,0.01601326 8.7185884,-4.0017078 c -1.7454984,2.3720609 -1.7354408,5.6174519 -6e-7,8.035443 z"
         style="fill:#000000;fill-opacity:1;fill-rule:evenodd;stroke:#000000;stroke-width:0.625;stroke-linejoin:round;stroke-opacity:1"
         id="path4901"
         inkscape:connector-curvature="0" />
    </marker>
    <marker
       inkscape:stockid="TriangleOutM"
       orient="auto"
       refY="0"
       refX="0"
       id="TriangleOutM"
       style="overflow:visible"
       inkscape:isstock="true">
      <path
         id="path4444"
         d="m 5.77,0 -8.65,5 0,-10 8.65,5 z"
         style="fill:#000000;fill-opacity:1;fill-rule:evenodd;stroke:#000000;stroke-width:1pt;stroke-opacity:1"
         transform="scale(0.4,0.4)"
         inkscape:connector-curvature="0" />
    </marker>
    <marker
       inkscape:stockid="TriangleOutS"
       orient="auto"
       refY="0"
       refX="0"
       id="TriangleOutS"
       style="overflow:visible"
       inkscape:isstock="true">
      <path
         id="path4447"
         d="m 5.77,0 -8.65,5 0,-10 8.65,5 z"
         style="fill:#000000;fill-opacity:1;fill-rule:evenodd;stroke:#000000;stroke-width:1pt;stroke-opacity:1"
         transform="scale(0.2,0.2)"
         inkscape:connector-curvature="0" />
    </marker>
    <marker
       inkscape:stockid="Arrow2Mend"
       orient="auto"
       refY="0"
       refX="0"
       id="Arrow2Mend"
       style="overflow:visible"
       inkscape:isstock="true">
      <path
         id="path4326"
         style="fill:#000000;fill-opacity:1;fill-rule:evenodd;stroke:#000000;stroke-width:0.625;stroke-linejoin:round;stroke-opacity:1"
         d="M 8.7185878,4.0337352 -2.2072895,0.01601326 8.7185884,-4.0017078 c -1.7454984,2.3720609 -1.7354408,5.6174519 -6e-7,8.035443 z"
         transform="scale(-0.6,-0.6)"
         inkscape:connector-curvature="0" />
    </marker>
    <marker
       inkscape:isstock="true"
       style="overflow:visible"
       id="marker4688"
       refX="0"
       refY="0"
       orient="auto"
       inkscape:stockid="DotM">
      <path
         transform="matrix(0.4,0,0,0.4,2.96,0.4)"
         style="fill:#000000;fill-opacity:1;fill-rule:evenodd;stroke:#000000;stroke-width:1pt;stroke-opacity:1"
         d="m -2.5,-1 c 0,2.76 -2.24,5 -5,5 -2.76,0 -5,-2.24 -5,-5 0,-2.76 2.24,-5 5,-5 2.76,0 5,2.24 5,5 z"
         id="path4690"
         inkscape:connector-curvature="0" />
    </marker>
    <marker
       inkscape:stockid="DotL"
       orient="auto"
       refY="0"
       refX="0"
       id="DotL"
       style="overflow:visible"
       inkscape:isstock="true">
      <path
         id="path4287"
         d="m -2.5,-1 c 0,2.76 -2.24,5 -5,5 -2.76,0 -5,-2.24 -5,-5 0,-2.76 2.24,-5 5,-5 2.76,0 5,2.24 5,5 z"
         style="fill:#000000;fill-opacity:1;fill-rule:evenodd;stroke:#000000;stroke-width:1pt;stroke-opacity:1"
         transform="matrix(0.8,0,0,0.8,5.92,0.8)"
         inkscape:connector-curvature="0" />
    </marker>
    <marker
       inkscape:stockid="Arrow1Mend"
       orient="auto"
       refY="0"
       refX="0"
       id="marker8028"
       style="overflow:visible"
       inkscape:isstock="true">
      <path
         inkscape:connector-curvature="0"
         id="path8030"
         d="M 0,0 5,-5 -12.5,0 5,5 0,0 Z"
         style="fill:#000000;fill-opacity:1;fill-rule:evenodd;stroke:#000000;stroke-width:1pt;stroke-opacity:1"
         transform="matrix(-0.4,0,0,-0.4,-4,0)" />
    </marker>
    <marker
       inkscape:stockid="Arrow1Mend"
       orient="auto"
       refY="0"
       refX="0"
       id="marker7212"
       style="overflow:visible"
       inkscape:isstock="true">
      <path
         inkscape:connector-curvature="0"
         id="path7214"
         d="M 0,0 5,-5 -12.5,0 5,5 0,0 Z"
         style="fill:#000000;fill-opacity:1;fill-rule:evenodd;stroke:#000000;stroke-width:1pt;stroke-opacity:1"
         transform="matrix(-0.4,0,0,-0.4,-4,0)" />
    </marker>
    <marker
       inkscape:stockid="Arrow2Send"
       orient="auto"
       refY="0"
       refX="0"
       id="Arrow2Send"
       style="overflow:visible"
       inkscape:isstock="true">
      <path
         inkscape:connector-curvature="0"
         id="path5866"
         style="fill:#000000;fill-opacity:1;fill-rule:evenodd;stroke:#000000;stroke-width:0.625;stroke-linejoin:round;stroke-opacity:1"
         d="M 8.7185878,4.0337352 -2.2072895,0.01601326 8.7185884,-4.0017078 c -1.7454984,2.3720609 -1.7354408,5.6174519 -6e-7,8.035443 z"
         transform="matrix(-0.3,0,0,-0.3,0.69,0)" />
    </marker>
    <marker
       inkscape:isstock="true"
       style="overflow:visible"
       id="marker6475-0"
       refX="0"
       refY="0"
       orient="auto"
       inkscape:stockid="Arrow1Mend">
      <path
         inkscape:connector-curvature="0"
         transform="matrix(-0.4,0,0,-0.4,-4,0)"
         style="fill:#000000;fill-opacity:1;fill-rule:evenodd;stroke:#000000;stroke-width:1pt;stroke-opacity:1"
         d="M 0,0 5,-5 -12.5,0 5,5 0,0 Z"
         id="path6477-0" />
    </marker>
    <marker
       inkscape:isstock="true"
       style="overflow:visible"
       id="marker5815-2"
       refX="0"
       refY="0"
       orient="auto"
       inkscape:stockid="DotS">
      <path
         inkscape:connector-curvature="0"
         transform="matrix(0.2,0,0,0.2,1.48,0.2)"
         style="fill:#000000;fill-opacity:1;fill-rule:evenodd;stroke:#000000;stroke-width:1pt;stroke-opacity:1"
         d="m -2.5,-1 c 0,2.76 -2.24,5 -5,5 -2.76,0 -5,-2.24 -5,-5 0,-2.76 2.24,-5 5,-5 2.76,0 5,2.24 5,5 z"
         id="path5817-0" />
    </marker>
    <marker
       inkscape:isstock="true"
       style="overflow:visible"
       id="marker4636-6"
       refX="0"
       refY="0"
       orient="auto"
       inkscape:stockid="DotS">
      <path
         inkscape:connector-curvature="0"
         transform="matrix(0.2,0,0,0.2,1.48,0.2)"
         style="fill:#000000;fill-opacity:1;fill-rule:evenodd;stroke:#000000;stroke-width:1pt;stroke-opacity:1"
         d="m -2.5,-1 c 0,2.76 -2.24,5 -5,5 -2.76,0 -5,-2.24 -5,-5 0,-2.76 2.24,-5 5,-5 2.76,0 5,2.24 5,5 z"
         id="path4638-9" />
    </marker>
  </defs>
  <sodipodi:namedview
     id="base"
     pagecolor="#ffffff"
     bordercolor="#666666"
     borderopacity="1.0"
     inkscape:pageopacity="0.0"
     inkscape:pageshadow="2"
     inkscape:zoom="2.8284271"
     inkscape:cx="173.99664"
     inkscape:cy="30.734922"
     inkscape:document-units="px"
     inkscape:current-layer="layer1"
     showgrid="true"
     fit-margin-top="1"
     fit-margin-right="4"
     fit-margin-bottom="1"
     fit-margin-left="8"
     inkscape:window-width="1920"
     inkscape:window-height="1018"
     inkscape:window-x="1912"
     inkscape:window-y="-8"
     inkscape:window-maximized="1"
     inkscape:snap-bbox="true"
     inkscape:object-nodes="true"
     showguides="false"
     inkscape:snap-bbox-midpoints="true"
     inkscape:snap-global="true">
    <inkscape:grid
       type="xygrid"
       id="grid4164"
       originx="56.008822"
       originy="-34.203105" />
  </sodipodi:namedview>
  <metadata
     id="metadata7">
    <rdf:RDF>
      <cc:Work
         rdf:about="">
        <dc:format>image/svg+xml</dc:format>
        <dc:type
           rdf:resource="http://purl.org/dc/dcmitype/StillImage" />
        <dc:title></dc:title>
      </cc:Work>
    </rdf:RDF>
  </metadata>
  <g
     inkscape:label="Layer 1"
     inkscape:groupmode="layer"
     id="layer1"
     transform="translate(-410.22953,-134.58977)">
    <g
       inkscape:export-ydpi="180"
       inkscape:export-xdpi="180"
       inkscape:export-filename="C:\Users\B48923\Documents\MesRapports-Papiers-Presentations\EOS ESD 2015\FirstDraft\fullsetup.png"
       style="stroke-width:18.00000381;stroke-miterlimit:4;stroke-dasharray:none"
       transform="matrix(0.08754208,0,0,0.08754208,657.01278,121.66109)"
       id="g4387">
      <path
         style="fill:none;stroke:#000000;stroke-width:18.00000381;stroke-linecap:round;stroke-linejoin:miter;stroke-miterlimit:4;stroke-dasharray:none;stroke-opacity:1"
         d="m -580,292.36218 300.19215,0 c 8.54569,0 42.5,20 42.5,60 0,40 -31.45431,60 -40,60 l -300.19215,0"
         id="path4389"
         inkscape:connector-curvature="0"
         sodipodi:nodetypes="cczcc" />
      <ellipse
         ry="60"
         rx="40"
         cy="352.36218"
         cx="-575"
         style="fill:#ffffff;fill-opacity:1;stroke:#000000;stroke-width:18.00000381;stroke-miterlimit:4;stroke-dasharray:none;stroke-opacity:1"
         id="ellipse4391"
         transform="translate(-5,0)" />
    </g>
    <g
       id="g7388"
       transform="matrix(0.08754208,0,0,0.08754208,561.79388,121.66109)"
       style="stroke-width:18.00000381;stroke-miterlimit:4;stroke-dasharray:none"
       inkscape:export-filename="C:\Users\B48923\Documents\MesRapports-Papiers-Presentations\EOS ESD 2015\FirstDraft\fullsetup.png"
       inkscape:export-xdpi="180"
       inkscape:export-ydpi="180">
      <path
         sodipodi:nodetypes="cczcc"
         inkscape:connector-curvature="0"
         id="path7390"
         d="m -580,292.36218 300.19215,0 c 8.54569,0 42.5,20 42.5,60 0,40 -31.45431,60 -40,60 l -300.19215,0"
         style="fill:none;stroke:#000000;stroke-width:18.00000381;stroke-linecap:round;stroke-linejoin:miter;stroke-miterlimit:4;stroke-dasharray:none;stroke-opacity:1" />
      <ellipse
         transform="translate(-5,0)"
         id="ellipse7392"
         style="fill:#ffffff;fill-opacity:1;stroke:#000000;stroke-width:18.00000381;stroke-miterlimit:4;stroke-dasharray:none;stroke-opacity:1"
         cx="-575"
         cy="352.36218"
         rx="40"
         ry="60" />
    </g>
    <path
       style="fill:#000000;fill-opacity:1;stroke:#000000;stroke-width:1.57575762;stroke-linecap:butt;stroke-linejoin:miter;stroke-miterlimit:4;stroke-dasharray:none;stroke-opacity:1"
       d="m 511.01945,152.06989 c 0.20637,0 0.43774,0.2313 0.43774,0.4377 0,0.2063 -0.23137,0.4377 -0.43774,0.4377 -0.20632,0 -0.4377,-0.2314 -0.4377,-0.4377 0,-0.2064 0.23138,-0.4377 0.4377,-0.4377 z"
       id="path7394"
       inkscape:connector-curvature="0"
       sodipodi:nodetypes="zzzzz"
       inkscape:export-filename="C:\Users\B48923\Documents\MesRapports-Papiers-Presentations\EOS ESD 2015\FirstDraft\fullsetup.png"
       inkscape:export-xdpi="180"
       inkscape:export-ydpi="180" />
    <text
       inkscape:export-ydpi="180"
       inkscape:export-xdpi="180"
       inkscape:export-filename="C:\Users\B48923\Documents\MesRapports-Papiers-Presentations\EOS ESD 2015\FirstDraft\fullsetup.png"
       sodipodi:linespacing="125%"
       id="text5556"
       y="142.82057"
       x="524.35956"
       style="font-style:normal;font-variant:normal;font-weight:normal;font-stretch:normal;font-size:6.25000095px;line-height:125%;font-family:Roboto;-inkscape-font-specification:Roboto;text-align:center;letter-spacing:0px;word-spacing:0px;text-anchor:middle;fill:#000000;fill-opacity:1;stroke:none;stroke-width:1px;stroke-linecap:butt;stroke-linejoin:miter;stroke-opacity:1"
       xml:space="preserve"><tspan
         id="tspan5560"
         y="142.82057"
         x="524.35956"
         sodipodi:role="line">coaxial cable</tspan><tspan
         y="150.63307"
         x="524.35956"
         sodipodi:role="line"
         id="tspan4914" /></text>
    <path
       inkscape:export-ydpi="180"
       inkscape:export-xdpi="180"
       inkscape:export-filename="C:\Users\B48923\Documents\MesRapports-Papiers-Presentations\EOS ESD 2015\FirstDraft\r2_r10_setup.png"
       inkscape:connector-curvature="0"
       style="font-size:8px;fill:none;stroke:#000000;stroke-width:1.00000024;stroke-linecap:round;stroke-linejoin:round;stroke-miterlimit:4;stroke-dasharray:none;stroke-opacity:1;marker-start:url(#marker4798)"
       d="m 567.23837,152.50733 -26.00004,0"
       id="path4796"
       sodipodi:nodetypes="cc" />
    <path
       sodipodi:nodetypes="ccc"
       inkscape:export-ydpi="180"
       inkscape:export-xdpi="180"
       inkscape:export-filename="C:\Users\B48923\Documents\MesRapports-Papiers-Presentations\EOS ESD 2015\FirstDraft\r2_r10_setup.png"
       inkscape:connector-curvature="0"
       id="path5024"
       d="m 569.23837,146.50734 6.99997,5.99999 29.99998,0"
       style="fill:none;fill-rule:evenodd;stroke:#000000;stroke-width:1.00000024;stroke-linecap:butt;stroke-linejoin:miter;stroke-miterlimit:4;stroke-dasharray:none;stroke-opacity:1;marker-start:url(#marker5026)" />
    <ellipse
       inkscape:export-ydpi="360"
       inkscape:export-xdpi="360"
       inkscape:export-filename="C:\Users\B48923\Documents\MesRapports-Papiers-Presentations\EOS ESD 2015\04-Final-corrected\figure_2.png"
       style="fill:none;stroke:#000000;stroke-width:1.28891098;stroke-linecap:round;stroke-linejoin:round;stroke-miterlimit:4;stroke-dasharray:none;stroke-opacity:1"
       id="ellipse5300"
       cx="446.23834"
       cy="167.50734"
       rx="7.0178967"
       ry="7.059042" />
    <g
       transform="matrix(0.61674027,0,0,0.61674027,207.56667,58.155218)"
       id="g5302">
      <path
         inkscape:connector-curvature="0"
         style="fill:none;stroke:#000000;stroke-width:2;stroke-linecap:round;stroke-linejoin:miter;stroke-miterlimit:4;stroke-dasharray:none;stroke-opacity:1"
         d="m 395.09608,206.49231 -17.17486,0"
         id="path5304" />
      <path
         inkscape:connector-curvature="0"
         style="fill:none;stroke:#000000;stroke-width:2;stroke-linecap:round;stroke-linejoin:miter;stroke-miterlimit:4;stroke-dasharray:none;stroke-opacity:1"
         d="m 391.80486,209.4407 -10.59242,0"
         id="path5306" />
      <path
         inkscape:connector-curvature="0"
         style="fill:none;stroke:#000000;stroke-width:2;stroke-linecap:round;stroke-linejoin:miter;stroke-miterlimit:4;stroke-dasharray:none;stroke-opacity:1"
         d="m 388.74062,212.3891 -4.46394,0"
         id="path5308" />
    </g>
    <text
       inkscape:export-ydpi="360"
       inkscape:export-xdpi="360"
       inkscape:export-filename="C:\Users\B48923\Documents\MesRapports-Papiers-Presentations\EOS ESD 2015\04-Final-corrected\figure_2.png"
       sodipodi:linespacing="125%"
       id="text5310"
       y="170.44362"
       x="441.7688"
       style="font-style:normal;font-variant:normal;font-weight:normal;font-stretch:normal;font-size:7.50000191px;line-height:125%;font-family:Roboto;-inkscape-font-specification:Roboto;letter-spacing:0px;word-spacing:0px;fill:#000000;fill-opacity:1;stroke:none;stroke-width:1px;stroke-linecap:butt;stroke-linejoin:miter;stroke-opacity:1"
       xml:space="preserve"><tspan
         y="170.44362"
         x="441.7688"
         id="tspan5312"
         sodipodi:role="line">HV</tspan></text>
    <path
       inkscape:export-ydpi="180"
       inkscape:export-xdpi="180"
       inkscape:export-filename="C:\Users\B48923\Documents\MesRapports-Papiers-Presentations\EOS ESD 2015\FirstDraft\r2_r10_setup.png"
       inkscape:connector-curvature="0"
       id="path5314"
       d="m 446.23833,185.50734 0,-11.00001"
       style="fill:none;fill-rule:evenodd;stroke:#000000;stroke-width:1.00000024;stroke-linecap:butt;stroke-linejoin:miter;stroke-miterlimit:4;stroke-dasharray:none;stroke-opacity:1;marker-start:url(#marker5394)"
       sodipodi:nodetypes="cc" />
    <path
       sodipodi:nodetypes="cc"
       id="path6003"
       d="m 511.23833,152.50734 -30,0"
       style="font-size:8px;fill:none;stroke:#000000;stroke-width:1.00000012;stroke-linecap:round;stroke-linejoin:round;stroke-miterlimit:4;stroke-dasharray:none;stroke-opacity:1"
       inkscape:connector-curvature="0"
       inkscape:export-filename="C:\Users\B48923\Documents\MesRapports-Papiers-Presentations\EOS ESD 2015\FirstDraft\r2_r10_setup.png"
       inkscape:export-xdpi="180"
       inkscape:export-ydpi="180" />
    <path
       inkscape:export-ydpi="180"
       inkscape:export-xdpi="180"
       inkscape:export-filename="C:\Users\B48923\Documents\MesRapports-Papiers-Presentations\EOS ESD 2015\FirstDraft\r2_r10_setup.png"
       inkscape:connector-curvature="0"
       id="path6463"
       d="m 651.11337,152.50733 22.00001,0 0,10.00001"
       style="fill:none;fill-rule:evenodd;stroke:#000000;stroke-width:1.00000012;stroke-linecap:butt;stroke-linejoin:miter;stroke-miterlimit:4;stroke-dasharray:none;stroke-opacity:1;marker-start:url(#SquareM)"
       sodipodi:nodetypes="ccc" />
    <text
       inkscape:export-ydpi="180"
       inkscape:export-xdpi="180"
       inkscape:export-filename="C:\Users\B48923\Documents\MesRapports-Papiers-Presentations\EOS ESD 2015\FirstDraft\r2_r10_setup.png"
       sodipodi:linespacing="111%"
       id="text6465"
       y="164.88307"
       x="691.07983"
       style="font-style:normal;font-variant:normal;font-weight:normal;font-stretch:normal;font-size:6.25000095px;line-height:111.00000143%;font-family:Roboto;-inkscape-font-specification:Roboto;text-align:center;letter-spacing:0px;word-spacing:0px;text-anchor:middle;fill:#000000;fill-opacity:1;stroke:none;stroke-width:1px;stroke-linecap:butt;stroke-linejoin:miter;stroke-opacity:1"
       xml:space="preserve"><tspan
         id="tspan6467"
         y="164.88307"
         x="691.07983"
         sodipodi:role="line">device</tspan><tspan
         y="171.82057"
         x="691.07983"
         sodipodi:role="line"
         id="tspan5530">under</tspan><tspan
         y="178.75807"
         x="691.07983"
         sodipodi:role="line"
         id="tspan5532">test</tspan></text>
    <path
       inkscape:connector-curvature="0"
       style="font-size:8px;fill:none;stroke:#000000;stroke-width:1.00000012;stroke-linecap:round;stroke-linejoin:round;stroke-miterlimit:4;stroke-dasharray:none;stroke-opacity:1"
       d="m 482.23833,152.50734 -3.33334,0 -1.1111,2.1295 -2.22223,-4.259 -2.22222,4.259 -2.22222,-4.259 -2.22223,4.259 -2.22221,-4.259 -1.11111,2.1295 -3.33334,0"
       id="path4938"
       inkscape:export-filename="C:\Users\B48923\Documents\MesRapports-Papiers-Presentations\EOS ESD 2015\FirstDraft\fullsetup.png"
       inkscape:export-xdpi="180"
       inkscape:export-ydpi="180" />
    <text
       xml:space="preserve"
       style="font-style:normal;font-variant:normal;font-weight:normal;font-stretch:normal;font-size:6.25000095px;line-height:125%;font-family:Roboto;-inkscape-font-specification:Roboto;letter-spacing:0px;word-spacing:0px;fill:#000000;fill-opacity:1;stroke:none;stroke-width:1px;stroke-linecap:butt;stroke-linejoin:miter;stroke-opacity:1"
       x="463.09375"
       y="145.72902"
       id="text4908"
       sodipodi:linespacing="125%"
       inkscape:export-filename="C:\Users\B48923\Documents\MesRapports-Papiers-Presentations\EOS ESD 2015\FirstDraft\fullsetup.png"
       inkscape:export-xdpi="180"
       inkscape:export-ydpi="180"><tspan
         sodipodi:role="line"
         id="tspan4910"
         x="463.09375"
         y="145.72902">10 MΩ</tspan></text>
    <text
       xml:space="preserve"
       style="font-style:normal;font-variant:normal;font-weight:normal;font-stretch:normal;font-size:6.25000095px;line-height:125%;font-family:Roboto;-inkscape-font-specification:Roboto;letter-spacing:0px;word-spacing:0px;fill:#000000;fill-opacity:1;stroke:none;stroke-width:1px;stroke-linecap:butt;stroke-linejoin:miter;stroke-opacity:1"
       x="506.02393"
       y="166.72902"
       id="text4916"
       sodipodi:linespacing="125%"><tspan
         sodipodi:role="line"
         id="tspan4918"
         x="506.02393"
         y="166.72902">100 ns - 50 Ω</tspan></text>
    <path
       inkscape:export-ydpi="180"
       inkscape:export-xdpi="180"
       inkscape:export-filename="C:\Users\B48923\Documents\MesRapports-Papiers-Presentations\EOS ESD 2015\FirstDraft\r2_r10_setup.png"
       inkscape:connector-curvature="0"
       style="font-size:8px;fill:none;stroke:#000000;stroke-width:1.00000012;stroke-linecap:round;stroke-linejoin:round;stroke-miterlimit:4;stroke-dasharray:none;stroke-opacity:1"
       d="m 463.23833,152.50734 -17,0 0,8"
       id="path4500"
       sodipodi:nodetypes="ccc" />
    <rect
       style="opacity:1;fill:none;fill-opacity:1;stroke:#000000;stroke-width:1;stroke-linecap:round;stroke-linejoin:round;stroke-miterlimit:4;stroke-dasharray:none;stroke-dashoffset:0;stroke-opacity:1"
       id="rect4502"
       width="6"
       height="15.000002"
       x="670.1134"
       y="162.50734" />
    <g
       id="g4510"
       transform="matrix(0.61674027,0,0,0.61674027,434.44172,58.155218)">
      <path
         id="path4512"
         d="m 395.09608,206.49231 -17.17486,0"
         style="fill:none;stroke:#000000;stroke-width:2;stroke-linecap:round;stroke-linejoin:miter;stroke-miterlimit:4;stroke-dasharray:none;stroke-opacity:1"
         inkscape:connector-curvature="0" />
      <path
         id="path4514"
         d="m 391.80486,209.4407 -10.59242,0"
         style="fill:none;stroke:#000000;stroke-width:2;stroke-linecap:round;stroke-linejoin:miter;stroke-miterlimit:4;stroke-dasharray:none;stroke-opacity:1"
         inkscape:connector-curvature="0" />
      <path
         id="path4516"
         d="m 388.74062,212.3891 -4.46394,0"
         style="fill:none;stroke:#000000;stroke-width:2;stroke-linecap:round;stroke-linejoin:miter;stroke-miterlimit:4;stroke-dasharray:none;stroke-opacity:1"
         inkscape:connector-curvature="0" />
    </g>
    <path
       sodipodi:nodetypes="cc"
       style="fill:none;fill-rule:evenodd;stroke:#000000;stroke-width:1.00000024;stroke-linecap:butt;stroke-linejoin:miter;stroke-miterlimit:4;stroke-dasharray:none;stroke-opacity:1;marker-start:url(#marker4520)"
       d="m 673.11338,185.50734 0,-8"
       id="path4518"
       inkscape:connector-curvature="0"
       inkscape:export-filename="C:\Users\B48923\Documents\MesRapports-Papiers-Presentations\EOS ESD 2015\FirstDraft\r2_r10_setup.png"
       inkscape:export-xdpi="180"
       inkscape:export-ydpi="180" />
    <text
       xml:space="preserve"
       style="font-style:normal;font-variant:normal;font-weight:normal;font-stretch:normal;font-size:6.25000095px;line-height:125%;font-family:Roboto;-inkscape-font-specification:Roboto;text-align:center;letter-spacing:0px;word-spacing:0px;text-anchor:middle;fill:#000000;fill-opacity:1;stroke:none;stroke-width:1px;stroke-linecap:butt;stroke-linejoin:miter;stroke-opacity:1"
       x="571.20935"
       y="142.82057"
       id="text5618"
       sodipodi:linespacing="125%"
       inkscape:export-filename="C:\Users\B48923\Documents\MesRapports-Papiers-Presentations\EOS ESD 2015\FirstDraft\fullsetup.png"
       inkscape:export-xdpi="180"
       inkscape:export-ydpi="180"><tspan
         id="tspan5622"
         sodipodi:role="line"
         x="571.20935"
         y="142.82057">relay</tspan></text>
    <path
       inkscape:export-ydpi="180"
       inkscape:export-xdpi="180"
       inkscape:export-filename="C:\Users\B48923\Documents\MesRapports-Papiers-Presentations\EOS ESD 2015\FirstDraft\fullsetup.png"
       sodipodi:nodetypes="zzzzz"
       inkscape:connector-curvature="0"
       id="path4393"
       d="m 606.23835,152.06989 c 0.20637,0 0.43774,0.2313 0.43774,0.4377 0,0.2063 -0.23137,0.4377 -0.43774,0.4377 -0.20632,0 -0.4377,-0.2314 -0.4377,-0.4377 0,-0.2064 0.23138,-0.4377 0.4377,-0.4377 z"
       style="fill:#000000;fill-opacity:1;stroke:#000000;stroke-width:1.57575762;stroke-linecap:butt;stroke-linejoin:miter;stroke-miterlimit:4;stroke-dasharray:none;stroke-opacity:1" />
    <text
       xml:space="preserve"
       style="font-style:normal;font-variant:normal;font-weight:normal;font-stretch:normal;font-size:6.25000095px;line-height:125%;font-family:Roboto;-inkscape-font-specification:Roboto;text-align:center;letter-spacing:0px;word-spacing:0px;text-anchor:middle;fill:#000000;fill-opacity:1;stroke:none;stroke-width:1px;stroke-linecap:butt;stroke-linejoin:miter;stroke-opacity:1"
       x="619.57849"
       y="142.82057"
       id="text4395"
       sodipodi:linespacing="125%"
       inkscape:export-filename="C:\Users\B48923\Documents\MesRapports-Papiers-Presentations\EOS ESD 2015\FirstDraft\fullsetup.png"
       inkscape:export-xdpi="180"
       inkscape:export-ydpi="180"><tspan
         sodipodi:role="line"
         x="619.57849"
         y="142.82057"
         id="tspan4397">coaxial cable</tspan><tspan
         id="tspan4399"
         sodipodi:role="line"
         x="619.57849"
         y="150.63307" /></text>
    <text
       sodipodi:linespacing="125%"
       id="text4401"
       y="166.72902"
       x="613.84033"
       style="font-style:normal;font-variant:normal;font-weight:normal;font-stretch:normal;font-size:6.25000095px;line-height:125%;font-family:Roboto;-inkscape-font-specification:Roboto;letter-spacing:0px;word-spacing:0px;fill:#000000;fill-opacity:1;stroke:none;stroke-width:1px;stroke-linecap:butt;stroke-linejoin:miter;stroke-opacity:1"
       xml:space="preserve"><tspan
         y="166.72902"
         x="613.84033"
         id="tspan4403"
         sodipodi:role="line">50 Ω</tspan></text>
    <path
       style="fill:none;fill-rule:evenodd;stroke:#000000;stroke-width:1px;stroke-linecap:butt;stroke-linejoin:miter;stroke-opacity:1"
       d="m 651.23835,152.50734 -15,0"
       id="path4441"
       inkscape:connector-curvature="0" />
  </g>
</svg>
