<?xml version="1.0" encoding="UTF-8" standalone="no"?>
<!-- Created with Inkscape (http://www.inkscape.org/) -->

<svg
   xmlns:dc="http://purl.org/dc/elements/1.1/"
   xmlns:cc="http://creativecommons.org/ns#"
   xmlns:rdf="http://www.w3.org/1999/02/22-rdf-syntax-ns#"
   xmlns:svg="http://www.w3.org/2000/svg"
   xmlns="http://www.w3.org/2000/svg"
   xmlns:sodipodi="http://sodipodi.sourceforge.net/DTD/sodipodi-0.dtd"
   xmlns:inkscape="http://www.inkscape.org/namespaces/inkscape"
   width="155.81638"
   height="174.60838"
   id="svg2"
   version="1.1"
   inkscape:version="0.91 r13725"
   sodipodi:docname="example_assertion_current_mirror.svg">
  <defs
     id="defs4">
    <marker
       inkscape:isstock="true"
       style="overflow:visible"
       id="marker6741"
       refX="0"
       refY="0"
       orient="auto"
       inkscape:stockid="TriangleOutM">
      <path
         transform="scale(0.4,0.4)"
         style="fill:#ca3f86;fill-opacity:1;fill-rule:evenodd;stroke:#ca3f86;stroke-width:1pt;stroke-opacity:1"
         d="m 5.77,0 -8.65,5 0,-10 8.65,5 z"
         id="path6743"
         inkscape:connector-curvature="0" />
    </marker>
    <marker
       inkscape:isstock="true"
       style="overflow:visible"
       id="marker6611"
       refX="0"
       refY="0"
       orient="auto"
       inkscape:stockid="TriangleInM">
      <path
         transform="scale(-0.4,-0.4)"
         style="fill:#ca3f86;fill-opacity:1;fill-rule:evenodd;stroke:#ca3f86;stroke-width:1pt;stroke-opacity:1"
         d="m 5.77,0 -8.65,5 0,-10 8.65,5 z"
         id="path6613"
         inkscape:connector-curvature="0" />
    </marker>
    <marker
       inkscape:isstock="true"
       style="overflow:visible"
       id="marker5941"
       refX="0"
       refY="0"
       orient="auto"
       inkscape:stockid="TriangleOutM">
      <path
         transform="scale(0.4,0.4)"
         style="fill:#ca3f86;fill-opacity:1;fill-rule:evenodd;stroke:#ca3f86;stroke-width:1pt;stroke-opacity:1"
         d="m 5.77,0 -8.65,5 0,-10 8.65,5 z"
         id="path5943"
         inkscape:connector-curvature="0" />
    </marker>
    <marker
       inkscape:isstock="true"
       style="overflow:visible"
       id="marker5823"
       refX="0"
       refY="0"
       orient="auto"
       inkscape:stockid="TriangleInM">
      <path
         transform="scale(-0.4,-0.4)"
         style="fill:#ca3f86;fill-opacity:1;fill-rule:evenodd;stroke:#ca3f86;stroke-width:1pt;stroke-opacity:1"
         d="m 5.77,0 -8.65,5 0,-10 8.65,5 z"
         id="path5825"
         inkscape:connector-curvature="0" />
    </marker>
    <marker
       inkscape:stockid="TriangleInM"
       orient="auto"
       refY="0"
       refX="0"
       id="TriangleInM"
       style="overflow:visible"
       inkscape:isstock="true"
       inkscape:collect="always">
      <path
         id="path4927"
         d="m 5.77,0 -8.65,5 0,-10 8.65,5 z"
         style="fill:#ca3f86;fill-opacity:1;fill-rule:evenodd;stroke:#ca3f86;stroke-width:1pt;stroke-opacity:1"
         transform="scale(-0.4,-0.4)"
         inkscape:connector-curvature="0" />
    </marker>
    <marker
       inkscape:stockid="TriangleOutM"
       orient="auto"
       refY="0"
       refX="0"
       id="TriangleOutM"
       style="overflow:visible"
       inkscape:isstock="true"
       inkscape:collect="always">
      <path
         id="path4936"
         d="m 5.77,0 -8.65,5 0,-10 8.65,5 z"
         style="fill:#ca3f86;fill-opacity:1;fill-rule:evenodd;stroke:#ca3f86;stroke-width:1pt;stroke-opacity:1"
         transform="scale(0.4,0.4)"
         inkscape:connector-curvature="0" />
    </marker>
    <marker
       inkscape:stockid="Arrow2Send"
       orient="auto"
       refY="0"
       refX="0"
       id="Arrow2Send"
       style="overflow:visible">
      <path
         id="path7367"
         style="fill-rule:evenodd;stroke-width:0.625;stroke-linejoin:round"
         d="M 8.7185878,4.0337352 -2.2072895,0.01601326 8.7185884,-4.0017078 c -1.7454984,2.3720609 -1.7354408,5.6174519 -6e-7,8.035443 z"
         transform="matrix(-0.3,0,0,-0.3,0.69,0)"
         inkscape:connector-curvature="0" />
    </marker>
    <marker
       inkscape:stockid="DotS"
       orient="auto"
       refY="0"
       refX="0"
       id="DotS"
       style="overflow:visible">
      <path
         id="path5431"
         d="m -2.5,-1 c 0,2.76 -2.24,5 -5,5 -2.76,0 -5,-2.24 -5,-5 0,-2.76 2.24,-5 5,-5 2.76,0 5,2.24 5,5 z"
         style="fill-rule:evenodd;stroke:#000000;stroke-width:1pt"
         transform="matrix(0.2,0,0,0.2,1.48,0.2)"
         inkscape:connector-curvature="0" />
    </marker>
    <marker
       inkscape:stockid="Arrow2Mstart"
       orient="auto"
       refY="0"
       refX="0"
       id="Arrow2Mstart"
       style="overflow:visible">
      <path
         id="path5709"
         style="fill-rule:evenodd;stroke-width:0.625;stroke-linejoin:round"
         d="M 8.7185878,4.0337352 -2.2072895,0.01601326 8.7185884,-4.0017078 c -1.7454984,2.3720609 -1.7354408,5.6174519 -6e-7,8.035443 z"
         transform="scale(0.6,0.6)"
         inkscape:connector-curvature="0" />
    </marker>
    <marker
       inkscape:stockid="Arrow2Mend"
       orient="auto"
       refY="0"
       refX="0"
       id="Arrow2Mend"
       style="overflow:visible">
      <path
         id="path5712"
         style="fill-rule:evenodd;stroke-width:0.625;stroke-linejoin:round"
         d="M 8.7185878,4.0337352 -2.2072895,0.01601326 8.7185884,-4.0017078 c -1.7454984,2.3720609 -1.7354408,5.6174519 -6e-7,8.035443 z"
         transform="scale(-0.6,-0.6)"
         inkscape:connector-curvature="0" />
    </marker>
    <marker
       inkscape:stockid="Arrow1Mstart"
       orient="auto"
       refY="0"
       refX="0"
       id="Arrow1Mstart"
       style="overflow:visible">
      <path
         id="path4753"
         d="M 0,0 5,-5 -12.5,0 5,5 0,0 Z"
         style="fill-rule:evenodd;stroke:#000000;stroke-width:1pt"
         transform="matrix(0.4,0,0,0.4,4,0)"
         inkscape:connector-curvature="0" />
    </marker>
    <marker
       inkscape:stockid="SquareM"
       orient="auto"
       refY="0"
       refX="0"
       id="SquareM"
       style="overflow:visible">
      <path
         id="path4294"
         d="M -5,-5 -5,5 5,5 5,-5 -5,-5 Z"
         style="fill-rule:evenodd;stroke:#000000;stroke-width:1pt"
         transform="scale(0.4,0.4)"
         inkscape:connector-curvature="0" />
    </marker>
    <marker
       inkscape:stockid="DotM"
       orient="auto"
       refY="0"
       refX="0"
       id="DotM"
       style="overflow:visible">
      <path
         id="path4285"
         d="m -2.5,-1 c 0,2.76 -2.24,5 -5,5 -2.76,0 -5,-2.24 -5,-5 0,-2.76 2.24,-5 5,-5 2.76,0 5,2.24 5,5 z"
         style="fill-rule:evenodd;stroke:#000000;stroke-width:1pt"
         transform="matrix(0.4,0,0,0.4,2.96,0.4)"
         inkscape:connector-curvature="0" />
    </marker>
    <marker
       inkscape:stockid="Arrow1Send"
       orient="auto"
       refY="0"
       refX="0"
       id="Arrow1Send"
       style="overflow:visible">
      <path
         id="path3919"
         d="M 0,0 5,-5 -12.5,0 5,5 0,0 Z"
         style="fill-rule:evenodd;stroke:#000000;stroke-width:1pt"
         transform="matrix(-0.2,0,0,-0.2,-1.2,0)"
         inkscape:connector-curvature="0" />
    </marker>
    <marker
       inkscape:stockid="Arrow2Lstart"
       orient="auto"
       refY="0"
       refX="0"
       id="Arrow2Lstart"
       style="overflow:visible">
      <path
         id="path3922"
         style="fill-rule:evenodd;stroke-width:0.625;stroke-linejoin:round"
         d="M 8.7185878,4.0337352 -2.2072895,0.01601326 8.7185884,-4.0017078 c -1.7454984,2.3720609 -1.7354408,5.6174519 -6e-7,8.035443 z"
         transform="matrix(1.1,0,0,1.1,1.1,0)"
         inkscape:connector-curvature="0" />
    </marker>
    <marker
       inkscape:stockid="Tail"
       orient="auto"
       refY="0"
       refX="0"
       id="Tail"
       style="overflow:visible">
      <g
         id="g3940"
         transform="scale(-1.2,-1.2)">
        <path
           id="path3942"
           d="M -3.8048674,-3.9585227 0.54352094,0"
           style="fill:none;fill-rule:evenodd;stroke:#000000;stroke-width:0.80000001;stroke-linecap:round"
           inkscape:connector-curvature="0" />
        <path
           id="path3944"
           d="M -1.2866832,-3.9585227 3.0617053,0"
           style="fill:none;fill-rule:evenodd;stroke:#000000;stroke-width:0.80000001;stroke-linecap:round"
           inkscape:connector-curvature="0" />
        <path
           id="path3946"
           d="M 1.3053582,-3.9585227 5.6537466,0"
           style="fill:none;fill-rule:evenodd;stroke:#000000;stroke-width:0.80000001;stroke-linecap:round"
           inkscape:connector-curvature="0" />
        <path
           id="path3948"
           d="M -3.8048674,4.1775838 0.54352094,0.21974226"
           style="fill:none;fill-rule:evenodd;stroke:#000000;stroke-width:0.80000001;stroke-linecap:round"
           inkscape:connector-curvature="0" />
        <path
           id="path3950"
           d="M -1.2866832,4.1775838 3.0617053,0.21974226"
           style="fill:none;fill-rule:evenodd;stroke:#000000;stroke-width:0.80000001;stroke-linecap:round"
           inkscape:connector-curvature="0" />
        <path
           id="path3952"
           d="M 1.3053582,4.1775838 5.6537466,0.21974226"
           style="fill:none;fill-rule:evenodd;stroke:#000000;stroke-width:0.80000001;stroke-linecap:round"
           inkscape:connector-curvature="0" />
      </g>
    </marker>
    <marker
       inkscape:stockid="Arrow1Mend"
       orient="auto"
       refY="0"
       refX="0"
       id="Arrow1Mend"
       style="overflow:visible">
      <path
         id="path3889"
         d="M 0,0 5,-5 -12.5,0 5,5 0,0 Z"
         style="fill-rule:evenodd;stroke:#000000;stroke-width:1pt"
         transform="matrix(-0.4,0,0,-0.4,-4,0)"
         inkscape:connector-curvature="0" />
    </marker>
    <marker
       inkscape:stockid="Arrow1Send"
       orient="auto"
       refY="0"
       refX="0"
       id="Arrow1Send-1"
       style="overflow:visible">
      <path
         inkscape:connector-curvature="0"
         id="path3919-7"
         d="M 0,0 5,-5 -12.5,0 5,5 0,0 Z"
         style="fill-rule:evenodd;stroke:#000000;stroke-width:1pt"
         transform="matrix(-0.2,0,0,-0.2,-1.2,0)" />
    </marker>
    <clipPath
       id="clipPath6196"
       clipPathUnits="userSpaceOnUse">
      <path
         inkscape:connector-curvature="0"
         id="path6198"
         d="m 4209.6,144 0,8064 -2534.4,0 0,-8064 2534.4,0 z" />
    </clipPath>
  </defs>
  <sodipodi:namedview
     id="base"
     pagecolor="#ffffff"
     bordercolor="#666666"
     borderopacity="1.0"
     inkscape:pageopacity="0.0"
     inkscape:pageshadow="2"
     inkscape:zoom="2.5679152"
     inkscape:cx="216.58207"
     inkscape:cy="120.03727"
     inkscape:document-units="px"
     inkscape:current-layer="layer1"
     showgrid="true"
     inkscape:snap-bbox="true"
     showguides="true"
     inkscape:guide-bbox="true"
     inkscape:window-width="1920"
     inkscape:window-height="1058"
     inkscape:window-x="-8"
     inkscape:window-y="-8"
     inkscape:window-maximized="1"
     inkscape:object-nodes="true"
     inkscape:snap-global="false"
     fit-margin-top="3"
     fit-margin-right="3"
     fit-margin-bottom="3"
     fit-margin-left="3"
     inkscape:snap-grids="true">
    <inkscape:grid
       type="xygrid"
       id="grid2985"
       originx="95.116371"
       originy="-578.25" />
  </sodipodi:namedview>
  <metadata
     id="metadata7">
    <rdf:RDF>
      <cc:Work
         rdf:about="">
        <dc:format>image/svg+xml</dc:format>
        <dc:type
           rdf:resource="http://purl.org/dc/dcmitype/StillImage" />
        <dc:title></dc:title>
      </cc:Work>
    </rdf:RDF>
  </metadata>
  <g
     inkscape:label="Layer 1"
     inkscape:groupmode="layer"
     id="layer1"
     transform="translate(95.116371,-299.50381)">
    <path
       inkscape:connector-curvature="0"
       id="path10622"
       style="fill:none;stroke:#000000;stroke-width:0.5;stroke-linecap:butt;stroke-linejoin:miter;stroke-miterlimit:10;stroke-dasharray:none;stroke-opacity:1"
       d="m -65.788454,432.36219 -2.39988,-2.4 -3.29975,0 -2.4005,2.4 2.4005,2.4 3.29975,0 2.39988,-2.4 z" />
    <path
       inkscape:connector-curvature="0"
       id="path10634"
       style="fill:none;stroke:#000000;stroke-width:0.5;stroke-linecap:butt;stroke-linejoin:miter;stroke-miterlimit:10;stroke-dasharray:none;stroke-opacity:1"
       d="m -27.122525,315.61218 4.8,0 0,3 -2.4,2.4 -2.4,-2.4 0,-3 z" />
    <path
       inkscape:connector-curvature="0"
       id="path10816"
       style="fill:none;stroke:#000000;stroke-width:0.5;stroke-linecap:butt;stroke-linejoin:miter;stroke-miterlimit:10;stroke-dasharray:none;stroke-opacity:1"
       d="m 23.577475,380.56218 1.05,2.1" />
    <path
       inkscape:connector-curvature="0"
       id="path10818"
       style="fill:none;stroke:#000000;stroke-width:0.5;stroke-linecap:butt;stroke-linejoin:miter;stroke-miterlimit:10;stroke-dasharray:none;stroke-opacity:1"
       d="m 23.577475,380.56218 -1.05,2.1" />
    <path
       inkscape:connector-curvature="0"
       id="path10820"
       style="fill:none;stroke:#000000;stroke-width:0.5;stroke-linecap:butt;stroke-linejoin:miter;stroke-miterlimit:10;stroke-dasharray:none;stroke-opacity:1"
       d="m 23.577475,380.56218 0,-0.6" />
    <path
       inkscape:connector-curvature="0"
       id="path10822"
       style="fill:none;stroke:#000000;stroke-width:0.5;stroke-linecap:butt;stroke-linejoin:miter;stroke-miterlimit:10;stroke-dasharray:none;stroke-opacity:1"
       d="m 12.927475,382.66218 6.15,0" />
    <path
       inkscape:connector-curvature="0"
       id="path10824"
       style="fill:none;stroke:#000000;stroke-width:0.5;stroke-linecap:butt;stroke-linejoin:miter;stroke-miterlimit:10;stroke-dasharray:none;stroke-opacity:1"
       d="m 20.877475,377.26218 8.1,0 0,-5.25" />
    <path
       inkscape:connector-curvature="0"
       id="path10826"
       style="fill:none;stroke:#000000;stroke-width:0.5;stroke-linecap:butt;stroke-linejoin:miter;stroke-miterlimit:10;stroke-dasharray:none;stroke-opacity:1"
       d="m 24.927475,386.11218 4.05,1.95 -4.05,1.8" />
    <path
       inkscape:connector-curvature="0"
       id="path10828"
       style="fill:none;stroke:#000000;stroke-width:0.5;stroke-linecap:butt;stroke-linejoin:miter;stroke-miterlimit:10;stroke-dasharray:none;stroke-opacity:1"
       d="m 19.077475,388.06218 0,-10.8" />
    <path
       inkscape:connector-curvature="0"
       id="path10830"
       style="fill:none;stroke:#000000;stroke-width:0.5;stroke-linecap:butt;stroke-linejoin:miter;stroke-miterlimit:10;stroke-dasharray:none;stroke-opacity:1"
       d="m 20.877475,388.06218 8.1,0 0,5.4" />
    <path
       inkscape:connector-curvature="0"
       id="path10832"
       style="fill:none;stroke:#000000;stroke-width:0.5;stroke-linecap:butt;stroke-linejoin:miter;stroke-miterlimit:10;stroke-dasharray:none;stroke-opacity:1"
       d="m 20.877475,388.06218 0,-10.8" />
    <path
       inkscape:connector-curvature="0"
       id="path10834"
       style="fill:none;stroke:#000000;stroke-width:0.5;stroke-linecap:butt;stroke-linejoin:miter;stroke-miterlimit:10;stroke-dasharray:none;stroke-opacity:1"
       d="m 20.877475,382.66218 8.1,0" />
    <path
       inkscape:connector-curvature="0"
       id="path10856"
       style="fill:none;stroke:#000000;stroke-width:0.5;stroke-linecap:butt;stroke-linejoin:miter;stroke-miterlimit:10;stroke-dasharray:none;stroke-opacity:1"
       d="m -19.322525,380.56218 -1.05,2.1" />
    <path
       inkscape:connector-curvature="0"
       id="path10858"
       style="fill:none;stroke:#000000;stroke-width:0.5;stroke-linecap:butt;stroke-linejoin:miter;stroke-miterlimit:10;stroke-dasharray:none;stroke-opacity:1"
       d="m -19.322525,380.56218 1.05,2.1" />
    <path
       inkscape:connector-curvature="0"
       id="path10860"
       style="fill:none;stroke:#000000;stroke-width:0.5;stroke-linecap:butt;stroke-linejoin:miter;stroke-miterlimit:10;stroke-dasharray:none;stroke-opacity:1"
       d="m -19.322525,380.56218 0,-0.6" />
    <path
       inkscape:connector-curvature="0"
       id="path10862"
       style="fill:none;stroke:#000000;stroke-width:0.5;stroke-linecap:butt;stroke-linejoin:miter;stroke-miterlimit:10;stroke-dasharray:none;stroke-opacity:1"
       d="m -14.672525,382.66218 6.1500002,0" />
    <path
       inkscape:connector-curvature="0"
       id="path10864"
       style="fill:none;stroke:#000000;stroke-width:0.5;stroke-linecap:butt;stroke-linejoin:miter;stroke-miterlimit:10;stroke-dasharray:none;stroke-opacity:1"
       d="m -16.622525,377.26218 -8.1,0 0,-5.25" />
    <path
       inkscape:connector-curvature="0"
       id="path10866"
       style="fill:none;stroke:#000000;stroke-width:0.5;stroke-linecap:butt;stroke-linejoin:miter;stroke-miterlimit:10;stroke-dasharray:none;stroke-opacity:1"
       d="m -20.672525,386.11218 -4.05,1.95 4.05,1.8" />
    <path
       inkscape:connector-curvature="0"
       id="path10868"
       style="fill:none;stroke:#000000;stroke-width:0.5;stroke-linecap:butt;stroke-linejoin:miter;stroke-miterlimit:10;stroke-dasharray:none;stroke-opacity:1"
       d="m -14.672525,388.06218 0,-10.8" />
    <path
       inkscape:connector-curvature="0"
       id="path10870"
       style="fill:none;stroke:#000000;stroke-width:0.5;stroke-linecap:butt;stroke-linejoin:miter;stroke-miterlimit:10;stroke-dasharray:none;stroke-opacity:1"
       d="m -16.622525,388.06218 -8.1,0 0,5.4" />
    <path
       inkscape:connector-curvature="0"
       id="path10872"
       style="fill:none;stroke:#000000;stroke-width:0.5;stroke-linecap:butt;stroke-linejoin:miter;stroke-miterlimit:10;stroke-dasharray:none;stroke-opacity:1"
       d="m -16.622525,388.06218 0,-10.8" />
    <path
       inkscape:connector-curvature="0"
       id="path10874"
       style="fill:none;stroke:#000000;stroke-width:0.5;stroke-linecap:butt;stroke-linejoin:miter;stroke-miterlimit:10;stroke-dasharray:none;stroke-opacity:1"
       d="m -24.722525,382.66218 8.1,0" />
    <path
       inkscape:connector-curvature="0"
       id="path11008"
       style="fill:none;stroke:#000000;stroke-width:0.5;stroke-linecap:butt;stroke-linejoin:miter;stroke-miterlimit:10;stroke-dasharray:none;stroke-opacity:1"
       d="m 28.977475,372.01218 0,-54.64999"
       sodipodi:nodetypes="cc" />
    <path
       inkscape:connector-curvature="0"
       id="path11010"
       style="fill:none;stroke:#000000;stroke-width:0.5;stroke-linecap:butt;stroke-linejoin:miter;stroke-miterlimit:10;stroke-dasharray:none;stroke-opacity:1"
       d="m 28.977475,382.66218 16.05,0" />
    <path
       inkscape:connector-curvature="0"
       id="path11042"
       style="fill:none;stroke:#000000;stroke-width:0.5;stroke-linecap:butt;stroke-linejoin:miter;stroke-miterlimit:10;stroke-dasharray:none;stroke-opacity:1"
       d="m 2.1274752,382.66218 10.7999998,0" />
    <path
       inkscape:connector-curvature="0"
       id="path11044"
       style="fill:none;stroke:#000000;stroke-width:0.5;stroke-linecap:butt;stroke-linejoin:miter;stroke-miterlimit:10;stroke-dasharray:none;stroke-opacity:1"
       d="m -47,432.36219 104.7,0" />
    <path
       inkscape:connector-curvature="0"
       id="path11090"
       style="fill:none;stroke:#000000;stroke-width:0.5;stroke-linecap:butt;stroke-linejoin:miter;stroke-miterlimit:10;stroke-dasharray:none;stroke-opacity:1"
       d="m 28.977475,432.36219 21.45,0" />
    <path
       inkscape:connector-curvature="0"
       id="path11110"
       style="fill:none;stroke:#000000;stroke-width:0.5;stroke-linecap:butt;stroke-linejoin:miter;stroke-miterlimit:10;stroke-dasharray:none;stroke-opacity:1"
       d="m 45.027475,404.11218 0,-21.45" />
    <path
       inkscape:connector-curvature="0"
       id="path11114"
       style="fill:none;stroke:#000000;stroke-width:0.5;stroke-linecap:butt;stroke-linejoin:miter;stroke-miterlimit:10;stroke-dasharray:none;stroke-opacity:1"
       d="m 28.977475,432.36219 0,-28.25001"
       sodipodi:nodetypes="cc" />
    <path
       inkscape:connector-curvature="0"
       id="path11116"
       style="fill:none;stroke:#000000;stroke-width:0.5;stroke-linecap:butt;stroke-linejoin:miter;stroke-miterlimit:10;stroke-dasharray:none;stroke-opacity:1"
       d="m 28.977475,404.11218 0,-10.65" />
    <path
       inkscape:connector-curvature="0"
       id="path11118"
       style="fill:none;stroke:#000000;stroke-width:0.5;stroke-linecap:butt;stroke-linejoin:miter;stroke-miterlimit:10;stroke-dasharray:none;stroke-opacity:1"
       d="m 28.977475,404.11218 16.05,0" />
    <path
       inkscape:connector-curvature="0"
       id="path11126"
       style="fill:none;stroke:#000000;stroke-width:0.5;stroke-linecap:butt;stroke-linejoin:miter;stroke-miterlimit:10;stroke-dasharray:none;stroke-opacity:1"
       d="m 23.577475,379.96218 21.45,0" />
    <path
       inkscape:connector-curvature="0"
       id="path11128"
       style="fill:none;stroke:#000000;stroke-width:0.5;stroke-linecap:butt;stroke-linejoin:miter;stroke-miterlimit:10;stroke-dasharray:none;stroke-opacity:1"
       d="m -24.722525,358.51218 26.8500002,0" />
    <path
       inkscape:connector-curvature="0"
       id="path11138"
       style="fill:#000000;fill-opacity:1;fill-rule:nonzero;stroke:none;stroke-width:0.5;stroke-miterlimit:10;stroke-dasharray:none"
       d="m 3.3274752,382.66218 c 0,-0.6625 -0.5375,-1.2 -1.2,-1.2 -0.6625,0 -1.20000001,0.5375 -1.20000001,1.2 0,0.6625 0.53750001,1.2 1.20000001,1.2 0.6625,0 1.2,-0.5375 1.2,-1.2" />
    <path
       inkscape:connector-curvature="0"
       id="path11140"
       style="fill:none;stroke:#000000;stroke-width:0.5;stroke-linecap:butt;stroke-linejoin:miter;stroke-miterlimit:10;stroke-dasharray:none;stroke-opacity:1"
       d="m 3.3274752,382.66218 c 0,-0.6625 -0.5375,-1.2 -1.2,-1.2 -0.6625,0 -1.20000001,0.5375 -1.20000001,1.2 0,0.6625 0.53750001,1.2 1.20000001,1.2 0.6625,0 1.2,-0.5375 1.2,-1.2" />
    <path
       inkscape:connector-curvature="0"
       id="path11158"
       style="fill:none;stroke:#000000;stroke-width:0.5;stroke-linecap:butt;stroke-linejoin:miter;stroke-miterlimit:10;stroke-dasharray:none;stroke-opacity:1"
       d="m -24.722525,432.36219 53.7,0" />
    <path
       inkscape:connector-curvature="0"
       id="path11180"
       style="fill:none;stroke:#000000;stroke-width:0.5;stroke-linecap:butt;stroke-linejoin:miter;stroke-miterlimit:10;stroke-dasharray:none;stroke-opacity:1"
       d="m -40.772525,382.66218 16.05,0" />
    <path
       inkscape:connector-curvature="0"
       id="path11186"
       style="fill:none;stroke:#000000;stroke-width:0.5;stroke-linecap:butt;stroke-linejoin:miter;stroke-miterlimit:10;stroke-dasharray:none;stroke-opacity:1"
       d="m -24.722525,372.01218 0,-13.5" />
    <path
       inkscape:connector-curvature="0"
       id="path11196"
       style="fill:none;stroke:#000000;stroke-width:0.5;stroke-linecap:butt;stroke-linejoin:miter;stroke-miterlimit:10;stroke-dasharray:none;stroke-opacity:1"
       d="m -24.722525,432.36219 0,-28.25001"
       sodipodi:nodetypes="cc" />
    <path
       inkscape:connector-curvature="0"
       id="path11202"
       style="fill:none;stroke:#000000;stroke-width:0.5;stroke-linecap:butt;stroke-linejoin:miter;stroke-miterlimit:10;stroke-dasharray:none;stroke-opacity:1"
       d="m -40.772525,379.96218 21.45,0" />
    <path
       inkscape:connector-curvature="0"
       id="path11236"
       style="fill:none;stroke:#000000;stroke-width:0.5;stroke-linecap:butt;stroke-linejoin:miter;stroke-miterlimit:10;stroke-dasharray:none;stroke-opacity:1"
       d="m 2.1274752,382.66218 0,-24.15" />
    <path
       inkscape:connector-curvature="0"
       id="path11246"
       style="fill:#000000;fill-opacity:1;fill-rule:nonzero;stroke:none;stroke-width:0.5;stroke-miterlimit:10;stroke-dasharray:none"
       d="m -23.522525,358.51218 c 0,-0.6625 -0.5375,-1.2 -1.2,-1.2 -0.6625,0 -1.2,0.5375 -1.2,1.2 0,0.6625 0.5375,1.2 1.2,1.2 0.6625,0 1.2,-0.5375 1.2,-1.2" />
    <path
       inkscape:connector-curvature="0"
       id="path11248"
       style="fill:none;stroke:#000000;stroke-width:0.5;stroke-linecap:butt;stroke-linejoin:miter;stroke-miterlimit:10;stroke-dasharray:none;stroke-opacity:1"
       d="m -23.522525,358.51218 c 0,-0.6625 -0.5375,-1.2 -1.2,-1.2 -0.6625,0 -1.2,0.5375 -1.2,1.2 0,0.6625 0.5375,1.2 1.2,1.2 0.6625,0 1.2,-0.5375 1.2,-1.2" />
    <path
       inkscape:connector-curvature="0"
       id="path11264"
       style="fill:none;stroke:#000000;stroke-width:0.5;stroke-linecap:butt;stroke-linejoin:miter;stroke-miterlimit:10;stroke-dasharray:none;stroke-opacity:1"
       d="m -24.722525,404.11218 0,-10.65" />
    <path
       inkscape:connector-curvature="0"
       id="path11266"
       style="fill:none;stroke:#000000;stroke-width:0.5;stroke-linecap:butt;stroke-linejoin:miter;stroke-miterlimit:10;stroke-dasharray:none;stroke-opacity:1"
       d="m -40.772525,404.11218 0,-21.45" />
    <path
       inkscape:connector-curvature="0"
       id="path11268"
       style="fill:none;stroke:#000000;stroke-width:0.5;stroke-linecap:butt;stroke-linejoin:miter;stroke-miterlimit:10;stroke-dasharray:none;stroke-opacity:1"
       d="m -24.722525,358.51218 0,-40.2" />
    <path
       inkscape:connector-curvature="0"
       id="path11274"
       style="fill:none;stroke:#000000;stroke-width:0.5;stroke-linecap:butt;stroke-linejoin:miter;stroke-miterlimit:10;stroke-dasharray:none;stroke-opacity:1"
       d="m -40.772525,404.11218 16.05,0" />
    <path
       inkscape:connector-curvature="0"
       id="path11276"
       style="fill:none;stroke:#000000;stroke-width:0.5;stroke-linecap:butt;stroke-linejoin:miter;stroke-miterlimit:10;stroke-dasharray:none;stroke-opacity:1"
       d="m 7.4709726,432.36219 26.8500004,0" />
    <path
       inkscape:connector-curvature="0"
       id="path11280"
       style="fill:#000000;fill-opacity:1;fill-rule:nonzero;stroke:none;stroke-width:0.5;stroke-miterlimit:10;stroke-dasharray:none"
       d="m 30.177475,404.11218 c 0,-0.6625 -0.5375,-1.2 -1.2,-1.2 -0.6625,0 -1.2,0.5375 -1.2,1.2 0,0.6625 0.5375,1.2 1.2,1.2 0.6625,0 1.2,-0.5375 1.2,-1.2" />
    <path
       inkscape:connector-curvature="0"
       id="path11282"
       style="fill:none;stroke:#000000;stroke-width:0.5;stroke-linecap:butt;stroke-linejoin:miter;stroke-miterlimit:10;stroke-dasharray:none;stroke-opacity:1"
       d="m 30.177475,404.11218 c 0,-0.6625 -0.5375,-1.2 -1.2,-1.2 -0.6625,0 -1.2,0.5375 -1.2,1.2 0,0.6625 0.5375,1.2 1.2,1.2 0.6625,0 1.2,-0.5375 1.2,-1.2" />
    <path
       inkscape:connector-curvature="0"
       id="path11336"
       style="fill:#000000;fill-opacity:1;fill-rule:nonzero;stroke:none;stroke-width:0.5;stroke-miterlimit:10;stroke-dasharray:none"
       d="m 30.177475,432.36219 c 0,-0.6625 -0.5375,-1.2 -1.2,-1.2 -0.6625,0 -1.2,0.5375 -1.2,1.2 0,0.6625 0.5375,1.2 1.2,1.2 0.6625,0 1.2,-0.5375 1.2,-1.2" />
    <path
       inkscape:connector-curvature="0"
       id="path11338"
       style="fill:none;stroke:#000000;stroke-width:0.5;stroke-linecap:butt;stroke-linejoin:miter;stroke-miterlimit:10;stroke-dasharray:none;stroke-opacity:1"
       d="m 30.177475,432.36219 c 0,-0.6625 -0.5375,-1.2 -1.2,-1.2 -0.6625,0 -1.2,0.5375 -1.2,1.2 0,0.6625 0.5375,1.2 1.2,1.2 0.6625,0 1.2,-0.5375 1.2,-1.2" />
    <path
       inkscape:connector-curvature="0"
       id="path11340"
       style="fill:none;stroke:#000000;stroke-width:0.5;stroke-linecap:butt;stroke-linejoin:miter;stroke-miterlimit:10;stroke-dasharray:none;stroke-opacity:1"
       d="m -8.5225248,382.66218 10.65,0" />
    <path
       inkscape:connector-curvature="0"
       id="path11370"
       style="fill:#000000;fill-opacity:1;fill-rule:nonzero;stroke:none;stroke-width:0.5;stroke-miterlimit:10;stroke-dasharray:none"
       d="m -23.522525,432.36219 c 0,-0.6625 -0.5375,-1.2 -1.2,-1.2 -0.6625,0 -1.2,0.5375 -1.2,1.2 0,0.6625 0.5375,1.2 1.2,1.2 0.6625,0 1.2,-0.5375 1.2,-1.2" />
    <path
       inkscape:connector-curvature="0"
       id="path11372"
       style="fill:none;stroke:#000000;stroke-width:0.5;stroke-linecap:butt;stroke-linejoin:miter;stroke-miterlimit:10;stroke-dasharray:none;stroke-opacity:1"
       d="m -23.522525,432.36219 c 0,-0.6625 -0.5375,-1.2 -1.2,-1.2 -0.6625,0 -1.2,0.5375 -1.2,1.2 0,0.6625 0.5375,1.2 1.2,1.2 0.6625,0 1.2,-0.5375 1.2,-1.2" />
    <path
       inkscape:connector-curvature="0"
       id="path11404"
       style="fill:none;stroke:#000000;stroke-width:0.5;stroke-linecap:butt;stroke-linejoin:miter;stroke-miterlimit:10;stroke-dasharray:none;stroke-opacity:1"
       d="m -65.788454,432.36219 19.924034,0"
       sodipodi:nodetypes="cc" />
    <path
       inkscape:connector-curvature="0"
       id="path11426"
       style="fill:none;stroke:#000000;stroke-width:0.5;stroke-linecap:butt;stroke-linejoin:miter;stroke-miterlimit:10;stroke-dasharray:none;stroke-opacity:1"
       d="m -14.693498,432.36219 10.6500002,0" />
    <path
       inkscape:connector-curvature="0"
       id="path11444"
       style="fill:#000000;fill-opacity:1;fill-rule:nonzero;stroke:none;stroke-width:0.5;stroke-miterlimit:10;stroke-dasharray:none"
       d="m -23.522525,404.11218 c 0,-0.6625 -0.5375,-1.2 -1.2,-1.2 -0.6625,0 -1.2,0.5375 -1.2,1.2 0,0.6625 0.5375,1.2 1.2,1.2 0.6625,0 1.2,-0.5375 1.2,-1.2" />
    <path
       inkscape:connector-curvature="0"
       id="path11446"
       style="fill:none;stroke:#000000;stroke-width:0.5;stroke-linecap:butt;stroke-linejoin:miter;stroke-miterlimit:10;stroke-dasharray:none;stroke-opacity:1"
       d="m -23.522525,404.11218 c 0,-0.6625 -0.5375,-1.2 -1.2,-1.2 -0.6625,0 -1.2,0.5375 -1.2,1.2 0,0.6625 0.5375,1.2 1.2,1.2 0.6625,0 1.2,-0.5375 1.2,-1.2" />
    <path
       inkscape:connector-curvature="0"
       id="path11874"
       style="fill:#000000;fill-opacity:1;fill-rule:nonzero;stroke:none;stroke-width:0.5;stroke-miterlimit:10;stroke-dasharray:none"
       d="m -65.788454,432.36219 -2.39988,2.4 -3.29975,0 -2.4005,-2.4 2.4005,-2.4 3.29975,0" />
    <path
       inkscape:connector-curvature="0"
       id="path11876"
       style="fill:none;stroke:#000000;stroke-width:0.5;stroke-linecap:butt;stroke-linejoin:miter;stroke-miterlimit:10;stroke-dasharray:none;stroke-opacity:1"
       d="m -65.788454,432.36219 -2.39988,2.4 -3.29975,0 -2.4005,-2.4 2.4005,-2.4 3.29975,0 2.39988,2.4 z" />
    <path
       inkscape:connector-curvature="0"
       id="path12062"
       style="fill:#000000;fill-opacity:1;fill-rule:nonzero;stroke:none;stroke-width:0.5;stroke-miterlimit:10;stroke-dasharray:none"
       d="m 22.527475,378.91218 0,2.1001 2.1001,0 0,-2.1001 -2.1001,0 z" />
    <path
       inkscape:connector-curvature="0"
       id="path12064"
       style="fill:none;stroke:#000000;stroke-width:0.5;stroke-linecap:butt;stroke-linejoin:miter;stroke-miterlimit:10;stroke-dasharray:none;stroke-opacity:1"
       d="m 22.527475,378.91218 0,2.1001 2.1001,0 0,-2.1001 -2.1001,0 z" />
    <path
       inkscape:connector-curvature="0"
       id="path12066"
       style="fill:#000000;fill-opacity:1;fill-rule:nonzero;stroke:none;stroke-width:0.5;stroke-miterlimit:10;stroke-dasharray:none"
       d="m 27.927475,370.81218 0,2.25 2.09961,0 0,-2.25 -2.09961,0 z" />
    <path
       inkscape:connector-curvature="0"
       id="path12068"
       style="fill:none;stroke:#000000;stroke-width:0.5;stroke-linecap:butt;stroke-linejoin:miter;stroke-miterlimit:10;stroke-dasharray:none;stroke-opacity:1"
       d="m 27.927475,370.81218 0,2.25 2.09961,0 0,-2.25 -2.09961,0 z" />
    <path
       inkscape:connector-curvature="0"
       id="path12070"
       style="fill:#000000;fill-opacity:1;fill-rule:nonzero;stroke:none;stroke-width:0.5;stroke-miterlimit:10;stroke-dasharray:none"
       d="m 27.927475,392.26218 0,2.25 2.09961,0 0,-2.25 -2.09961,0 z" />
    <path
       inkscape:connector-curvature="0"
       id="path12072"
       style="fill:none;stroke:#000000;stroke-width:0.5;stroke-linecap:butt;stroke-linejoin:miter;stroke-miterlimit:10;stroke-dasharray:none;stroke-opacity:1"
       d="m 27.927475,392.26218 0,2.25 2.09961,0 0,-2.25 -2.09961,0 z" />
    <path
       inkscape:connector-curvature="0"
       id="path12074"
       style="fill:#000000;fill-opacity:1;fill-rule:nonzero;stroke:none;stroke-width:0.5;stroke-miterlimit:10;stroke-dasharray:none"
       d="m 11.877475,381.61218 0,2.1001 2.1001,0 0,-2.1001 -2.1001,0 z" />
    <path
       inkscape:connector-curvature="0"
       id="path12076"
       style="fill:none;stroke:#000000;stroke-width:0.5;stroke-linecap:butt;stroke-linejoin:miter;stroke-miterlimit:10;stroke-dasharray:none;stroke-opacity:1"
       d="m 11.877475,381.61218 0,2.1001 2.1001,0 0,-2.1001 -2.1001,0 z" />
    <path
       inkscape:connector-curvature="0"
       id="path12078"
       style="fill:#000000;fill-opacity:1;fill-rule:nonzero;stroke:none;stroke-width:0.5;stroke-miterlimit:10;stroke-dasharray:none"
       d="m 27.927475,381.61218 0,2.1001 2.09961,0 0,-2.1001 -2.09961,0 z" />
    <path
       inkscape:connector-curvature="0"
       id="path12080"
       style="fill:none;stroke:#000000;stroke-width:0.5;stroke-linecap:butt;stroke-linejoin:miter;stroke-miterlimit:10;stroke-dasharray:none;stroke-opacity:1"
       d="m 27.927475,381.61218 0,2.1001 2.09961,0 0,-2.1001 -2.09961,0 z" />
    <path
       inkscape:connector-curvature="0"
       id="path12102"
       style="fill:#000000;fill-opacity:1;fill-rule:nonzero;stroke:none;stroke-width:0.5;stroke-miterlimit:10;stroke-dasharray:none"
       d="m -20.372525,378.91218 0,2.1001 2.1001,0 0,-2.1001 -2.1001,0 z" />
    <path
       inkscape:connector-curvature="0"
       id="path12104"
       style="fill:none;stroke:#000000;stroke-width:0.5;stroke-linecap:butt;stroke-linejoin:miter;stroke-miterlimit:10;stroke-dasharray:none;stroke-opacity:1"
       d="m -20.372525,378.91218 0,2.1001 2.1001,0 0,-2.1001 -2.1001,0 z" />
    <path
       inkscape:connector-curvature="0"
       id="path12106"
       style="fill:#000000;fill-opacity:1;fill-rule:nonzero;stroke:none;stroke-width:0.5;stroke-miterlimit:10;stroke-dasharray:none"
       d="m -25.772525,370.81218 0,2.25 2.25,0 0,-2.25 -2.25,0 z" />
    <path
       inkscape:connector-curvature="0"
       id="path12108"
       style="fill:none;stroke:#000000;stroke-width:0.5;stroke-linecap:butt;stroke-linejoin:miter;stroke-miterlimit:10;stroke-dasharray:none;stroke-opacity:1"
       d="m -25.772525,370.81218 0,2.25 2.25,0 0,-2.25 -2.25,0 z" />
    <path
       inkscape:connector-curvature="0"
       id="path12110"
       style="fill:#000000;fill-opacity:1;fill-rule:nonzero;stroke:none;stroke-width:0.5;stroke-miterlimit:10;stroke-dasharray:none"
       d="m -25.772525,392.26218 0,2.25 2.25,0 0,-2.25 -2.25,0 z" />
    <path
       inkscape:connector-curvature="0"
       id="path12112"
       style="fill:none;stroke:#000000;stroke-width:0.5;stroke-linecap:butt;stroke-linejoin:miter;stroke-miterlimit:10;stroke-dasharray:none;stroke-opacity:1"
       d="m -25.772525,392.26218 0,2.25 2.25,0 0,-2.25 -2.25,0 z" />
    <path
       inkscape:connector-curvature="0"
       id="path12114"
       style="fill:#000000;fill-opacity:1;fill-rule:nonzero;stroke:none;stroke-width:0.5;stroke-miterlimit:10;stroke-dasharray:none"
       d="m -9.5725248,381.61218 0,2.1001 2.09961,0 0,-2.1001 -2.09961,0 z" />
    <path
       inkscape:connector-curvature="0"
       id="path12116"
       style="fill:none;stroke:#000000;stroke-width:0.5;stroke-linecap:butt;stroke-linejoin:miter;stroke-miterlimit:10;stroke-dasharray:none;stroke-opacity:1"
       d="m -9.5725248,381.61218 0,2.1001 2.09961,0 0,-2.1001 -2.09961,0 z" />
    <path
       inkscape:connector-curvature="0"
       id="path12118"
       style="fill:#000000;fill-opacity:1;fill-rule:nonzero;stroke:none;stroke-width:0.5;stroke-miterlimit:10;stroke-dasharray:none"
       d="m -25.772525,381.61218 0,2.1001 2.25,0 0,-2.1001 -2.25,0 z" />
    <path
       inkscape:connector-curvature="0"
       id="path12120"
       style="fill:none;stroke:#000000;stroke-width:0.5;stroke-linecap:butt;stroke-linejoin:miter;stroke-miterlimit:10;stroke-dasharray:none;stroke-opacity:1"
       d="m -25.772525,381.61218 0,2.1001 2.25,0 0,-2.1001 -2.25,0 z" />
    <path
       inkscape:connector-curvature="0"
       id="path12238"
       style="fill:#000000;fill-opacity:1;fill-rule:nonzero;stroke:none;stroke-width:0.5;stroke-miterlimit:10;stroke-dasharray:none"
       d="m -27.122525,315.61218 4.8,0 0,3 -2.4,2.4 -2.4,-2.4" />
    <path
       inkscape:connector-curvature="0"
       id="path12240"
       style="fill:none;stroke:#000000;stroke-width:0.5;stroke-linecap:butt;stroke-linejoin:miter;stroke-miterlimit:10;stroke-dasharray:none;stroke-opacity:1"
       d="m -27.122525,315.61218 4.8,0 0,3 -2.4,2.4 -2.4,-2.4 0,-3 z" />
    <text
       xml:space="preserve"
       style="font-style:normal;font-variant:normal;font-weight:normal;font-stretch:normal;font-size:10px;line-height:125%;font-family:Roboto;-inkscape-font-specification:Roboto;letter-spacing:0px;word-spacing:0px;fill:#000000;fill-opacity:1;stroke:none;stroke-width:1px;stroke-linecap:butt;stroke-linejoin:miter;stroke-opacity:1"
       x="-92.585121"
       y="434.88293"
       id="text7393"
       sodipodi:linespacing="125%"><tspan
         sodipodi:role="line"
         x="-92.585121"
         y="434.88293"
         id="tspan7397">gnd</tspan></text>
    <text
       sodipodi:linespacing="125%"
       id="text7401"
       y="309.71085"
       x="-36.433174"
       style="font-style:normal;font-variant:normal;font-weight:normal;font-stretch:normal;font-size:10px;line-height:125%;font-family:Roboto;-inkscape-font-specification:Roboto;letter-spacing:0px;word-spacing:0px;fill:#000000;fill-opacity:1;stroke:none;stroke-width:1px;stroke-linecap:butt;stroke-linejoin:miter;stroke-opacity:1"
       xml:space="preserve"><tspan
         id="tspan7403"
         y="309.71085"
         x="-36.433174"
         sodipodi:role="line">ip10u</tspan></text>
    <text
       xml:space="preserve"
       style="font-style:normal;font-variant:normal;font-weight:normal;font-stretch:normal;font-size:12.5px;line-height:125%;font-family:Roboto;-inkscape-font-specification:Roboto;letter-spacing:0px;word-spacing:0px;fill:#000000;fill-opacity:1;stroke:none;stroke-width:1px;stroke-linecap:butt;stroke-linejoin:miter;stroke-opacity:1"
       x="-90.475731"
       y="365.64282"
       id="text4921"
       sodipodi:linespacing="125%"><tspan
         sodipodi:role="line"
         x="-90.475731"
         y="365.64282"
         id="tspan4923">current</tspan><tspan
         sodipodi:role="line"
         x="-90.475731"
         y="381.26782"
         id="tspan5591">mirror</tspan></text>
    <path
       style="fill:none;fill-rule:evenodd;stroke:#ca3f86;stroke-width:2;stroke-linecap:butt;stroke-linejoin:miter;stroke-miterlimit:4;stroke-dasharray:none;stroke-opacity:1;marker-start:url(#TriangleInM);marker-end:url(#TriangleOutM)"
       d="m -9,391.36219 0,32"
       id="path4785"
       inkscape:connector-curvature="0"
       sodipodi:nodetypes="cc" />
    <text
       xml:space="preserve"
       style="font-style:normal;font-variant:normal;font-weight:300;font-stretch:normal;font-size:10px;line-height:125%;font-family:Roboto;-inkscape-font-specification:'Roboto Light';letter-spacing:0px;word-spacing:0px;fill:#ca3f86;fill-opacity:1;stroke:none;stroke-width:1px;stroke-linecap:butt;stroke-linejoin:miter;stroke-opacity:1"
       x="-4.9999995"
       y="407.76801"
       id="text5701"
       sodipodi:linespacing="125%"><tspan
         sodipodi:role="line"
         id="tspan5703"
         x="-4.9999995"
         y="407.76801">assert</tspan><tspan
         sodipodi:role="line"
         x="-4.9999995"
         y="420.26801"
         id="tspan5705">V &gt; Vth</tspan></text>
    <text
       sodipodi:linespacing="125%"
       id="text5817"
       y="448.16663"
       x="-2.6594207"
       style="font-style:normal;font-variant:normal;font-weight:300;font-stretch:normal;font-size:10px;line-height:125%;font-family:Roboto;-inkscape-font-specification:'Roboto Light';letter-spacing:0px;word-spacing:0px;fill:#ca3f86;fill-opacity:1;stroke:none;stroke-width:1px;stroke-linecap:butt;stroke-linejoin:miter;stroke-opacity:1"
       xml:space="preserve"><tspan
         y="448.16663"
         x="-2.6594207"
         id="tspan5819"
         sodipodi:role="line">assert</tspan><tspan
         id="tspan5821"
         y="460.66663"
         x="-2.6594207"
         sodipodi:role="line">V &lt; 0.3V</tspan></text>
    <g
       id="g6287"
       transform="translate(1,-45.999998)">
      <path
         style="fill:none;fill-rule:evenodd;stroke:#ca3f86;stroke-width:2;stroke-linecap:butt;stroke-linejoin:miter;stroke-miterlimit:4;stroke-dasharray:none;stroke-opacity:1;marker-start:url(#marker5823)"
         d="m -10,487.36219 0,25"
         id="path5815"
         inkscape:connector-curvature="0"
         sodipodi:nodetypes="cc" />
      <path
         inkscape:connector-curvature="0"
         id="path6263"
         d="m -15,512.36219 10,0"
         style="fill:none;fill-rule:evenodd;stroke:#ca3f86;stroke-width:1.5;stroke-linecap:butt;stroke-linejoin:miter;stroke-miterlimit:4;stroke-dasharray:none;stroke-opacity:1" />
      <path
         sodipodi:nodetypes="cc"
         style="fill:none;fill-rule:evenodd;stroke:#ca3f86;stroke-width:1.5;stroke-linecap:butt;stroke-linejoin:miter;stroke-miterlimit:4;stroke-dasharray:none;stroke-opacity:1"
         d="m -14,514.36219 8,0"
         id="path6265"
         inkscape:connector-curvature="0" />
      <path
         inkscape:connector-curvature="0"
         id="path6267"
         d="m -13,516.36219 6,0"
         style="fill:none;fill-rule:evenodd;stroke:#ca3f86;stroke-width:1.5;stroke-linecap:butt;stroke-linejoin:miter;stroke-miterlimit:4;stroke-dasharray:none;stroke-opacity:1"
         sodipodi:nodetypes="cc" />
    </g>
    <circle
       style="opacity:1;fill:#2b2200;fill-opacity:1;stroke:#ca3f86;stroke-width:1.5;stroke-linecap:round;stroke-linejoin:round;stroke-miterlimit:4;stroke-dasharray:none;stroke-dashoffset:0;stroke-opacity:1"
       id="path6305"
       cx="-9"
       cy="382.36218"
       r="3" />
    <circle
       r="3"
       cy="432.33609"
       cx="-9"
       id="circle6415"
       style="opacity:1;fill:#2b2200;fill-opacity:1;stroke:#ca3f86;stroke-width:1.5;stroke-linecap:round;stroke-linejoin:round;stroke-miterlimit:4;stroke-dasharray:none;stroke-dashoffset:0;stroke-opacity:1" />
    <path
       sodipodi:nodetypes="cccc"
       inkscape:connector-curvature="0"
       id="path6609"
       d="m -24.741848,349.36219 0,-5 53.741848,0 0,5"
       style="fill:none;fill-rule:evenodd;stroke:#ca3f86;stroke-width:2;stroke-linecap:butt;stroke-linejoin:miter;stroke-miterlimit:4;stroke-dasharray:none;stroke-opacity:1;marker-start:url(#marker6611);marker-end:url(#marker6741)" />
    <text
       sodipodi:linespacing="110%"
       id="text6985"
       y="330.13959"
       x="1.5323019"
       style="font-style:normal;font-variant:normal;font-weight:300;font-stretch:normal;font-size:10px;line-height:110.00000238%;font-family:Roboto;-inkscape-font-specification:'Roboto Light';text-align:center;letter-spacing:0px;word-spacing:0px;text-anchor:middle;fill:#ca3f86;fill-opacity:1;stroke:none;stroke-width:1px;stroke-linecap:butt;stroke-linejoin:miter;stroke-opacity:1"
       xml:space="preserve"><tspan
         y="330.13959"
         x="1.5323019"
         id="tspan6987"
         sodipodi:role="line">assert</tspan><tspan
         id="tspan6989"
         y="341.13959"
         x="1.5323019"
         sodipodi:role="line">currents</tspan><tspan
         y="352.13959"
         x="1.5323019"
         sodipodi:role="line"
         id="tspan7663">==</tspan></text>
  </g>
</svg>
