<?xml version="1.0" encoding="UTF-8" standalone="no"?>
<!-- Created with Inkscape (http://www.inkscape.org/) -->

<svg
   xmlns:dc="http://purl.org/dc/elements/1.1/"
   xmlns:cc="http://creativecommons.org/ns#"
   xmlns:rdf="http://www.w3.org/1999/02/22-rdf-syntax-ns#"
   xmlns:svg="http://www.w3.org/2000/svg"
   xmlns="http://www.w3.org/2000/svg"
   xmlns:sodipodi="http://sodipodi.sourceforge.net/DTD/sodipodi-0.dtd"
   xmlns:inkscape="http://www.inkscape.org/namespaces/inkscape"
   width="114.39846mm"
   height="40.900391mm"
   viewBox="0 0 405.34888 144.92264"
   id="svg2"
   version="1.1"
   inkscape:version="0.91 r13725"
   sodipodi:docname="zout_impact_time_domain.svg">
  <defs
     id="defs4">
    <marker
       inkscape:stockid="Arrow1Mstart"
       orient="auto"
       refY="0"
       refX="0"
       id="Arrow1Mstart"
       style="overflow:visible"
       inkscape:isstock="true">
      <path
         id="path4535"
         d="M 0,0 5,-5 -12.5,0 5,5 0,0 Z"
         style="fill:#000000;fill-opacity:1;fill-rule:evenodd;stroke:#000000;stroke-width:1pt;stroke-opacity:1"
         transform="matrix(0.4,0,0,0.4,4,0)"
         inkscape:connector-curvature="0" />
    </marker>
    <marker
       inkscape:isstock="true"
       style="overflow:visible"
       id="marker4371"
       refX="0"
       refY="0"
       orient="auto"
       inkscape:stockid="Arrow2Sstart">
      <path
         transform="matrix(0.3,0,0,0.3,-0.69,0)"
         d="M 8.7185878,4.0337352 -2.2072895,0.01601326 8.7185884,-4.0017078 c -1.7454984,2.3720609 -1.7354408,5.6174519 -6e-7,8.035443 z"
         style="fill:#000000;fill-opacity:1;fill-rule:evenodd;stroke:#000000;stroke-width:0.625;stroke-linejoin:round;stroke-opacity:1"
         id="path4373"
         inkscape:connector-curvature="0" />
    </marker>
    <marker
       inkscape:isstock="true"
       style="overflow:visible"
       id="marker6791"
       refX="0"
       refY="0"
       orient="auto"
       inkscape:stockid="Arrow2Send">
      <path
         transform="matrix(-0.3,0,0,-0.3,0.69,0)"
         d="M 8.7185878,4.0337352 -2.2072895,0.01601326 8.7185884,-4.0017078 c -1.7454984,2.3720609 -1.7354408,5.6174519 -6e-7,8.035443 z"
         style="fill:#000000;fill-opacity:1;fill-rule:evenodd;stroke:#000000;stroke-width:0.625;stroke-linejoin:round;stroke-opacity:1"
         id="path6793"
         inkscape:connector-curvature="0" />
    </marker>
    <marker
       inkscape:stockid="Arrow1Send"
       orient="auto"
       refY="0"
       refX="0"
       id="Arrow1Send"
       style="overflow:visible"
       inkscape:isstock="true">
      <path
         id="path4980"
         d="M 0,0 5,-5 -12.5,0 5,5 0,0 Z"
         style="fill:#000000;fill-opacity:1;fill-rule:evenodd;stroke:#000000;stroke-width:1pt;stroke-opacity:1"
         transform="matrix(-0.2,0,0,-0.2,-1.2,0)"
         inkscape:connector-curvature="0" />
    </marker>
    <marker
       inkscape:stockid="Arrow1Mend"
       orient="auto"
       refY="0"
       refX="0"
       id="marker5221"
       style="overflow:visible"
       inkscape:isstock="true">
      <path
         id="path4974"
         d="M 0,0 5,-5 -12.5,0 5,5 0,0 Z"
         style="fill:#000000;fill-opacity:1;fill-rule:evenodd;stroke:#000000;stroke-width:1pt;stroke-opacity:1"
         transform="matrix(-0.4,0,0,-0.4,-4,0)"
         inkscape:connector-curvature="0" />
    </marker>
    <marker
       inkscape:isstock="true"
       style="overflow:visible"
       id="marker4855"
       refX="0"
       refY="0"
       orient="auto"
       inkscape:stockid="TriangleOutM">
      <path
         inkscape:connector-curvature="0"
         transform="scale(0.4,0.4)"
         style="fill:#000000;fill-opacity:1;fill-rule:evenodd;stroke:#000000;stroke-width:1pt;stroke-opacity:1"
         d="m 5.77,0 -8.65,5 0,-10 8.65,5 z"
         id="path4857" />
    </marker>
    <marker
       inkscape:isstock="true"
       style="overflow:visible"
       id="marker4743"
       refX="0"
       refY="0"
       orient="auto"
       inkscape:stockid="TriangleOutM">
      <path
         inkscape:connector-curvature="0"
         transform="scale(0.4,0.4)"
         style="fill:#000000;fill-opacity:1;fill-rule:evenodd;stroke:#000000;stroke-width:1pt;stroke-opacity:1"
         d="m 5.77,0 -8.65,5 0,-10 8.65,5 z"
         id="path4745" />
    </marker>
    <marker
       inkscape:stockid="TriangleInM"
       orient="auto"
       refY="0"
       refX="0"
       id="TriangleInM"
       style="overflow:visible"
       inkscape:isstock="true">
      <path
         id="path4435"
         d="m 5.77,0 -8.65,5 0,-10 8.65,5 z"
         style="fill:#000000;fill-opacity:1;fill-rule:evenodd;stroke:#000000;stroke-width:1pt;stroke-opacity:1"
         transform="scale(-0.4,-0.4)"
         inkscape:connector-curvature="0" />
    </marker>
    <marker
       inkscape:stockid="TriangleOutS"
       orient="auto"
       refY="0"
       refX="0"
       id="TriangleOutS"
       style="overflow:visible"
       inkscape:isstock="true">
      <path
         id="path4447"
         d="m 5.77,0 -8.65,5 0,-10 8.65,5 z"
         style="fill:#000000;fill-opacity:1;fill-rule:evenodd;stroke:#000000;stroke-width:1pt;stroke-opacity:1"
         transform="scale(0.2,0.2)"
         inkscape:connector-curvature="0" />
    </marker>
    <marker
       inkscape:stockid="Arrow2Mend"
       orient="auto"
       refY="0"
       refX="0"
       id="Arrow2Mend"
       style="overflow:visible"
       inkscape:isstock="true">
      <path
         id="path4326"
         style="fill:#000000;fill-opacity:1;fill-rule:evenodd;stroke:#000000;stroke-width:0.625;stroke-linejoin:round;stroke-opacity:1"
         d="M 8.7185878,4.0337352 -2.2072895,0.01601326 8.7185884,-4.0017078 c -1.7454984,2.3720609 -1.7354408,5.6174519 -6e-7,8.035443 z"
         transform="scale(-0.6,-0.6)"
         inkscape:connector-curvature="0" />
    </marker>
    <marker
       inkscape:stockid="Arrow1Mend"
       orient="auto"
       refY="0"
       refX="0"
       id="Arrow1Mend"
       style="overflow:visible"
       inkscape:isstock="true">
      <path
         id="path4308"
         d="M 0,0 5,-5 -12.5,0 5,5 0,0 Z"
         style="fill:#000000;fill-opacity:1;fill-rule:evenodd;stroke:#000000;stroke-width:1pt;stroke-opacity:1"
         transform="matrix(-0.4,0,0,-0.4,-4,0)"
         inkscape:connector-curvature="0" />
    </marker>
    <marker
       inkscape:stockid="DotS"
       orient="auto"
       refY="0"
       refX="0"
       id="DotS"
       style="overflow:visible"
       inkscape:isstock="true">
      <path
         id="path4293"
         d="m -2.5,-1 c 0,2.76 -2.24,5 -5,5 -2.76,0 -5,-2.24 -5,-5 0,-2.76 2.24,-5 5,-5 2.76,0 5,2.24 5,5 z"
         style="fill:#000000;fill-opacity:1;fill-rule:evenodd;stroke:#000000;stroke-width:1pt;stroke-opacity:1"
         transform="matrix(0.2,0,0,0.2,1.48,0.2)"
         inkscape:connector-curvature="0" />
    </marker>
    <marker
       inkscape:isstock="true"
       style="overflow:visible"
       id="marker4688"
       refX="0"
       refY="0"
       orient="auto"
       inkscape:stockid="DotM">
      <path
         transform="matrix(0.4,0,0,0.4,2.96,0.4)"
         style="fill:#000000;fill-opacity:1;fill-rule:evenodd;stroke:#000000;stroke-width:1pt;stroke-opacity:1"
         d="m -2.5,-1 c 0,2.76 -2.24,5 -5,5 -2.76,0 -5,-2.24 -5,-5 0,-2.76 2.24,-5 5,-5 2.76,0 5,2.24 5,5 z"
         id="path4690"
         inkscape:connector-curvature="0" />
    </marker>
    <marker
       inkscape:stockid="DotL"
       orient="auto"
       refY="0"
       refX="0"
       id="DotL"
       style="overflow:visible"
       inkscape:isstock="true">
      <path
         id="path4287"
         d="m -2.5,-1 c 0,2.76 -2.24,5 -5,5 -2.76,0 -5,-2.24 -5,-5 0,-2.76 2.24,-5 5,-5 2.76,0 5,2.24 5,5 z"
         style="fill:#000000;fill-opacity:1;fill-rule:evenodd;stroke:#000000;stroke-width:1pt;stroke-opacity:1"
         transform="matrix(0.8,0,0,0.8,5.92,0.8)"
         inkscape:connector-curvature="0" />
    </marker>
    <marker
       inkscape:stockid="Arrow1Mend"
       orient="auto"
       refY="0"
       refX="0"
       id="marker8028"
       style="overflow:visible"
       inkscape:isstock="true">
      <path
         inkscape:connector-curvature="0"
         id="path8030"
         d="M 0,0 5,-5 -12.5,0 5,5 0,0 Z"
         style="fill:#000000;fill-opacity:1;fill-rule:evenodd;stroke:#000000;stroke-width:1pt;stroke-opacity:1"
         transform="matrix(-0.4,0,0,-0.4,-4,0)" />
    </marker>
    <marker
       inkscape:stockid="Arrow1Mend"
       orient="auto"
       refY="0"
       refX="0"
       id="marker7212"
       style="overflow:visible"
       inkscape:isstock="true">
      <path
         inkscape:connector-curvature="0"
         id="path7214"
         d="M 0,0 5,-5 -12.5,0 5,5 0,0 Z"
         style="fill:#000000;fill-opacity:1;fill-rule:evenodd;stroke:#000000;stroke-width:1pt;stroke-opacity:1"
         transform="matrix(-0.4,0,0,-0.4,-4,0)" />
    </marker>
    <marker
       inkscape:stockid="Arrow2Send"
       orient="auto"
       refY="0"
       refX="0"
       id="Arrow2Send"
       style="overflow:visible"
       inkscape:isstock="true">
      <path
         inkscape:connector-curvature="0"
         id="path5866"
         style="fill:#000000;fill-opacity:1;fill-rule:evenodd;stroke:#000000;stroke-width:0.625;stroke-linejoin:round;stroke-opacity:1"
         d="M 8.7185878,4.0337352 -2.2072895,0.01601326 8.7185884,-4.0017078 c -1.7454984,2.3720609 -1.7354408,5.6174519 -6e-7,8.035443 z"
         transform="matrix(-0.3,0,0,-0.3,0.69,0)" />
    </marker>
  </defs>
  <sodipodi:namedview
     id="base"
     pagecolor="#ffffff"
     bordercolor="#666666"
     borderopacity="1.0"
     inkscape:pageopacity="0.0"
     inkscape:pageshadow="2"
     inkscape:zoom="2.0000001"
     inkscape:cx="296.60264"
     inkscape:cy="115.78839"
     inkscape:document-units="px"
     inkscape:current-layer="layer1"
     showgrid="true"
     fit-margin-top="2"
     fit-margin-right="4"
     fit-margin-bottom="2"
     fit-margin-left="4"
     inkscape:window-width="1920"
     inkscape:window-height="1018"
     inkscape:window-x="1912"
     inkscape:window-y="-8"
     inkscape:window-maximized="1"
     inkscape:snap-bbox="true"
     inkscape:object-nodes="true"
     showguides="true"
     inkscape:snap-bbox-midpoints="false">
    <inkscape:grid
       type="xygrid"
       id="grid4164"
       originx="24.265641"
       originy="64.848706" />
  </sodipodi:namedview>
  <metadata
     id="metadata7">
    <rdf:RDF>
      <cc:Work
         rdf:about="">
        <dc:format>image/svg+xml</dc:format>
        <dc:type
           rdf:resource="http://purl.org/dc/dcmitype/StillImage" />
        <dc:title></dc:title>
      </cc:Work>
    </rdf:RDF>
  </metadata>
  <g
     inkscape:label="Layer 1"
     inkscape:groupmode="layer"
     id="layer1"
     transform="translate(-441.97268,-147.43337)">
    <path
       style="fill:none;fill-rule:evenodd;stroke:#ff7171;stroke-width:1px;stroke-linecap:butt;stroke-linejoin:miter;stroke-opacity:1"
       d="m 661.23832,182.50731 45,0 c 0,0 5.16867,1.1989 10,10 4.83133,8.8011 0,55 10,55 l 35,0 c 5,0 10,-5 20,-5 10,0 15,-43.19239 15,-45.25 0,-5 10,-14.75 10,-14.75 l 25,0"
       id="path5425"
       inkscape:connector-curvature="0"
       sodipodi:nodetypes="cczzccscc" />
    <path
       sodipodi:nodetypes="cczzccscc"
       inkscape:connector-curvature="0"
       id="path5423"
       d="m 486.23832,182.50731 45,0 c 0,0 5.16867,1.1989 10,10 4.83133,8.8011 0,35 10,35 l 35,0 c 5,0 10,-5 20,-5 10,0 15,-32.94239 15,-35 0,-5 10,-5 10,-5 l 25,0"
       style="fill:none;fill-rule:evenodd;stroke:#0dc72e;stroke-width:1px;stroke-linecap:butt;stroke-linejoin:miter;stroke-opacity:1" />
    <text
       xml:space="preserve"
       style="font-style:normal;font-variant:normal;font-weight:normal;font-stretch:normal;font-size:10px;line-height:125%;font-family:Roboto;-inkscape-font-specification:Roboto;letter-spacing:0px;word-spacing:0px;fill:#000000;fill-opacity:1;stroke:none;stroke-width:1px;stroke-linecap:butt;stroke-linejoin:miter;stroke-opacity:1"
       x="457.75711"
       y="235.17334"
       id="text4707"
       sodipodi:linespacing="125%"
       inkscape:export-xdpi="180"
       inkscape:export-ydpi="180"
       inkscape:export-filename="C:\Users\B48923\Documents\MesRapports-Papiers-Presentations\Rapports these\07 - Approche characterization blocks\blockcz\ab.png"><tspan
         id="tspan4709"
         sodipodi:role="line"
         x="457.75711"
         y="235.17334"
         style="font-style:normal;font-variant:normal;font-weight:300;font-stretch:normal;font-size:10px;font-family:Roboto;-inkscape-font-specification:'Roboto Light'">Vfail</tspan></text>
    <path
       style="fill:none;fill-rule:evenodd;stroke:#000000;stroke-width:0.60000014;stroke-linecap:butt;stroke-linejoin:miter;stroke-miterlimit:4;stroke-dasharray:7.20000172, 7.20000172;stroke-dashoffset:0;stroke-opacity:1"
       d="m 481.23832,232.50731 350,0"
       id="path4711"
       inkscape:connector-curvature="0"
       sodipodi:nodetypes="cc" />
    <path
       style="fill:none;fill-rule:evenodd;stroke:#000000;stroke-width:1px;stroke-linecap:butt;stroke-linejoin:miter;stroke-opacity:1;marker-start:url(#Arrow1Mstart);marker-end:url(#Arrow1Mend)"
       d="m 486.23832,162.50731 0,110 345,0"
       id="path4363"
       inkscape:connector-curvature="0"
       sodipodi:nodetypes="ccc" />
    <path
       sodipodi:nodetypes="cc"
       inkscape:connector-curvature="0"
       id="path4963"
       d="m 481.23832,182.50731 10,0"
       style="fill:none;fill-rule:evenodd;stroke:#000000;stroke-width:0.60000014;stroke-linecap:butt;stroke-linejoin:miter;stroke-miterlimit:4;stroke-dasharray:none;stroke-opacity:1" />
    <text
       inkscape:export-filename="C:\Users\B48923\Documents\MesRapports-Papiers-Presentations\Rapports these\07 - Approche characterization blocks\blockcz\ab.png"
       inkscape:export-ydpi="180"
       inkscape:export-xdpi="180"
       sodipodi:linespacing="125%"
       id="text5019"
       y="162.48874"
       x="455.99454"
       style="font-style:normal;font-variant:normal;font-weight:normal;font-stretch:normal;font-size:10px;line-height:125%;font-family:Roboto;-inkscape-font-specification:Roboto;letter-spacing:0px;word-spacing:0px;fill:#000000;fill-opacity:1;stroke:none;stroke-width:1px;stroke-linecap:butt;stroke-linejoin:miter;stroke-opacity:1"
       xml:space="preserve"><tspan
         style="font-style:normal;font-variant:normal;font-weight:300;font-stretch:normal;font-size:10px;font-family:Roboto;-inkscape-font-specification:'Roboto Light'"
         y="162.48874"
         x="455.99454"
         sodipodi:role="line"
         id="tspan5021">V(out)</tspan></text>
    <text
       xml:space="preserve"
       style="font-style:normal;font-variant:normal;font-weight:normal;font-stretch:normal;font-size:10px;line-height:125%;font-family:Roboto;-inkscape-font-specification:Roboto;letter-spacing:0px;word-spacing:0px;fill:#000000;fill-opacity:1;stroke:none;stroke-width:1px;stroke-linecap:butt;stroke-linejoin:miter;stroke-opacity:1"
       x="640.90295"
       y="285.17175"
       id="text5403"
       sodipodi:linespacing="125%"
       inkscape:export-xdpi="180"
       inkscape:export-ydpi="180"
       inkscape:export-filename="C:\Users\B48923\Documents\MesRapports-Papiers-Presentations\Rapports these\07 - Approche characterization blocks\blockcz\ab.png"><tspan
         id="tspan5405"
         sodipodi:role="line"
         x="640.90295"
         y="285.17175"
         style="font-style:normal;font-variant:normal;font-weight:300;font-stretch:normal;font-size:10px;font-family:Roboto;-inkscape-font-specification:'Roboto Light'">Time</tspan></text>
    <path
       style="fill:none;fill-rule:evenodd;stroke:#007915;stroke-width:1px;stroke-linecap:butt;stroke-linejoin:miter;stroke-opacity:1"
       d="m 486.23832,182.50731 45,0 c 0,0 5.16867,1.1989 10,10 4.83133,8.8011 0,45 10,45 l 35,0 c 5,0 10,-5 20,-5 10,0 15,-42.94239 15,-45 0,-5 10,-5 10,-5 l 25,0"
       id="path5407"
       inkscape:connector-curvature="0"
       sodipodi:nodetypes="cczzccscc" />
    <path
       sodipodi:nodetypes="cczzccscc"
       inkscape:connector-curvature="0"
       id="path5409"
       d="m 661.23832,182.50731 45,0 c 0,0 5.16867,1.1989 10,10 4.83133,8.8011 0,65 10,65 l 35,0 c 5,0 10,-5 20,-5 10,0 15,-53.19239 15,-55.25 0,-5 10,-14.75 10,-14.75 l 25,0"
       style="fill:none;fill-rule:evenodd;stroke:#d00000;stroke-width:1px;stroke-linecap:butt;stroke-linejoin:miter;stroke-opacity:1" />
    <text
       xml:space="preserve"
       style="font-style:normal;font-weight:normal;font-size:10px;line-height:125%;font-family:sans-serif;letter-spacing:0px;word-spacing:0px;fill:#0dc72e;fill-opacity:1;stroke:none;stroke-width:1px;stroke-linecap:butt;stroke-linejoin:miter;stroke-opacity:1"
       x="552.14648"
       y="224.8054"
       id="text5427"
       sodipodi:linespacing="125%"><tspan
         sodipodi:role="line"
         id="tspan5429"
         x="552.14648"
         y="224.8054">500 立</tspan></text>
    <text
       sodipodi:linespacing="125%"
       id="text5431"
       y="248.31671"
       x="557.62659"
       style="font-style:normal;font-weight:normal;font-size:10px;line-height:125%;font-family:sans-serif;letter-spacing:0px;word-spacing:0px;fill:#007915;fill-opacity:1;stroke:none;stroke-width:1px;stroke-linecap:butt;stroke-linejoin:miter;stroke-opacity:1"
       xml:space="preserve"><tspan
         y="248.31671"
         x="557.62659"
         id="tspan5433"
         sodipodi:role="line">1 M立</tspan></text>
    <text
       sodipodi:linespacing="125%"
       id="text5435"
       y="244.20184"
       x="728.97491"
       style="font-style:normal;font-weight:normal;font-size:10px;line-height:125%;font-family:sans-serif;letter-spacing:0px;word-spacing:0px;fill:#ff7171;fill-opacity:1;stroke:none;stroke-width:1px;stroke-linecap:butt;stroke-linejoin:miter;stroke-opacity:1"
       xml:space="preserve"><tspan
         y="244.20184"
         x="728.97491"
         id="tspan5437"
         sodipodi:role="line">500 立</tspan></text>
    <text
       xml:space="preserve"
       style="font-style:normal;font-weight:normal;font-size:10px;line-height:125%;font-family:sans-serif;letter-spacing:0px;word-spacing:0px;fill:#d00000;fill-opacity:1;stroke:none;stroke-width:1px;stroke-linecap:butt;stroke-linejoin:miter;stroke-opacity:1"
       x="731.62659"
       y="267.75391"
       id="text5439"
       sodipodi:linespacing="125%"><tspan
         sodipodi:role="line"
         id="tspan5441"
         x="731.62659"
         y="267.75391">1 M立</tspan></text>
    <text
       xml:space="preserve"
       style="font-style:normal;font-weight:normal;font-size:7.5px;line-height:125%;font-family:sans-serif;letter-spacing:0px;word-spacing:0px;fill:#000000;fill-opacity:1;stroke:none;stroke-width:1px;stroke-linecap:butt;stroke-linejoin:miter;stroke-opacity:1"
       x="490.27466"
       y="177.42926"
       id="text5497"
       sodipodi:linespacing="125%"><tspan
         sodipodi:role="line"
         id="tspan5499"
         x="490.27466"
         y="177.42926">small amplitude</tspan></text>
    <text
       sodipodi:linespacing="125%"
       id="text5501"
       y="177.42926"
       x="665.77466"
       style="font-style:normal;font-weight:normal;font-size:7.5px;line-height:125%;font-family:sans-serif;letter-spacing:0px;word-spacing:0px;fill:#000000;fill-opacity:1;stroke:none;stroke-width:1px;stroke-linecap:butt;stroke-linejoin:miter;stroke-opacity:1"
       xml:space="preserve"><tspan
         y="177.42926"
         x="665.77466"
         id="tspan5503"
         sodipodi:role="line">large amplitude</tspan></text>
  </g>
</svg>
